<svg viewBox="-14 0 511 511.99427" xmlns="http://www.w3.org/2000/svg" xmlns:xlink="http://www.w3.org/1999/xlink"><linearGradient id="a" gradientUnits="userSpaceOnUse" x1="134.7491604" x2="465.71949816" y1="53.15657968" y2="384.12591352"><stop offset="0" stop-color="#62e1fb"/><stop offset="1" stop-color="#00a2f3"/></linearGradient><linearGradient id="b"><stop offset="0" stop-color="#00a2f3" stop-opacity="0"/><stop offset="1" stop-color="#0075cd"/></linearGradient><linearGradient id="c" gradientUnits="userSpaceOnUse" x1="419.30928048" x2="351.93319752" xlink:href="#b" y1="312.94296592" y2="105.27809824"/><linearGradient id="d" gradientUnits="userSpaceOnUse" x1="201.25082904" x2="66.82694496" xlink:href="#b" y1="308.94334864" y2="174.51946456"/><linearGradient id="e" gradientUnits="userSpaceOnUse" x1="313.82138256" x2="250.13771736" xlink:href="#b" y1="103.15380352" y2="39.4691344"/><linearGradient id="f"><stop offset="0" stop-color="#cfffb4"/><stop offset="1" stop-color="#8ee388"/></linearGradient><linearGradient id="g" gradientUnits="userSpaceOnUse" x1="334.182888" x2="531.91396728" xlink:href="#f" y1="116.23789288" y2="313.96897216"/><linearGradient id="h" gradientUnits="userSpaceOnUse" x1="86.8973136" x2="189.00200112" xlink:href="#f" y1="194.58682144" y2="296.69150896"/><linearGradient id="i" gradientUnits="userSpaceOnUse" x1="253.517916" x2="370.49367048" xlink:href="#f" y1="338.7326668" y2="455.70842128"/><linearGradient id="j" gradientUnits="userSpaceOnUse" x1="260.13776448" x2="295.406478" xlink:href="#f" y1="49.46918152" y2="84.73789504"/><radialGradient id="k" cx="317.45" cy="125.349" gradientTransform="matrix(1.00272 -.04939 .04939 1.00272 -77.981 13.912)" gradientUnits="userSpaceOnUse" r="285.864"><stop offset=".0013" stop-color="#d5ecf3" stop-opacity="0"/><stop offset=".4242" stop-color="#d3eaf1" stop-opacity=".423529"/><stop offset=".5765" stop-color="#cce4eb" stop-opacity=".576471"/><stop offset=".6851" stop-color="#c1d9e0" stop-opacity=".686275"/><stop offset=".7729" stop-color="#b0c9d1" stop-opacity=".772549"/><stop offset=".8482" stop-color="#9ab4bd" stop-opacity=".847059"/><stop offset=".9147" stop-color="#7e9ba5" stop-opacity=".913725"/><stop offset=".9735" stop-color="#5f7d88" stop-opacity=".972549"/><stop offset="1" stop-color="#4e6d79"/></radialGradient><linearGradient id="l"><stop offset="0" stop-color="#ffe7a5"/><stop offset=".9655" stop-color="#ffbf5c"/></linearGradient><linearGradient id="m" gradientTransform="matrix(-.70987 -.70987 -.70987 .70987 2850.999 1805.32)" gradientUnits="userSpaceOnUse" x1="2718.597" x2="2962.344" xlink:href="#l" y1="721.664" y2="965.411"/><linearGradient id="n" gradientTransform="matrix(.70987 .70987 -.70987 .70987 1077.41 31.732)" gradientUnits="userSpaceOnUse" x1="-376.681" x2="-396.906" y1="835.065" y2="686.743"><stop offset="0" stop-color="#ff5d00" stop-opacity="0"/><stop offset="1" stop-color="#d54003"/></linearGradient><linearGradient id="o" gradientTransform="matrix(-.70987 -.70987 -.70987 .70987 2850.999 1805.32)" gradientUnits="userSpaceOnUse" x1="2821.698" x2="2930.507" xlink:href="#l" y1="796.417" y2="905.226"/><linearGradient id="p" gradientTransform="matrix(-.70987 -.70987 -.70987 .70987 2850.999 1805.32)" gradientUnits="userSpaceOnUse" x1="2918.71" x2="2918.71" y1="923.617" y2="946.968"><stop offset="0" stop-color="#acfcd9"/><stop offset="1" stop-color="#53d6be"/></linearGradient><linearGradient id="q" gradientTransform="matrix(.70987 .70987 -.70987 .70987 1077.41 31.732)" gradientUnits="userSpaceOnUse" x1="-371.25" x2="-524.301" y1="981.533" y2="981.533"><stop offset="0" stop-color="#827a74"/><stop offset="1" stop-color="#605b55"/></linearGradient><path d="m484.347656 201.378906c0 111.214844-90.15625 201.375-201.375 201.375s-201.378906-90.160156-201.378906-201.375c0-111.21875 90.160156-201.378906 201.378906-201.378906s201.375 90.160156 201.375 201.378906zm0 0" fill="url(#a)"/><path d="m484.351562 201.375c0 12.773438-1.191406 25.269531-3.46875 37.382812-3.125 16.6875-8.320312 32.644532-15.296874 47.601563-11.144532 23.921875-26.863282 45.292969-46.03125 62.984375l-87.34375-87.34375c-2.941407-1.695312-5.203126-4.417969-6.296876-7.6875l-44.601562-44.78125c-9.898438-8.445312-16.175781-21-16.175781-35.03125v-33.847656c0-15.226563 5.664062-29.132813 15.015625-39.714844 10.496094-11.910156 25.648437-19.617188 42.617187-20.289062.796875-.027344 1.613281-.046876 2.417969-.046876h37.191406c7.726563 0 13.984375-6.257812 13.984375-13.980468v-2.542969c0-7.722656 6.265625-13.980469 13.992188-13.980469h25.53125c1.042969.917969 2.078125 1.847656 3.101562 2.789063.980469.898437 1.957031 1.808593 2.914063 2.71875.050781.039062.085937.078125.125.125 2.011718 1.929687 3.976562 3.890625 5.914062 5.894531l.203125.203125c34.816407 36.1875 56.207031 85.359375 56.207031 139.546875zm0 0" fill="url(#c)"/><path d="m362.285156 386.527344c-24.339844 10.445312-51.148437 16.226562-79.3125 16.226562-33.0625 0-64.265625-7.964844-91.789062-22.09375-.25-.476562-.492188-.957031-.738282-1.445312-.625.03125-1.246093.066406-1.871093.085937-.179688.011719-.351563.019531-.535157.019531l-82.339843-82.339843c-.480469-.894531-.960938-1.785157-1.421875-2.675781-1.40625-2.691407-2.75-5.421876-4.035156-8.183594-.832032-1.800782-1.648438-3.632813-2.441407-5.460938-.03125-.066406-.046875-.125-.078125-.183594-.382812-.910156-.765625-1.820312-1.140625-2.730468-.496093-1.207032-.976562-2.414063-1.445312-3.632813-.269531-.679687-.527344-1.359375-.777344-2.039062-.007813-.011719-.019531-.03125-.019531-.039063-.351563-.949218-.699219-1.90625-1.042969-2.867187-.335937-.917969-.652344-1.847657-.980469-2.777344-.679687-1.992187-1.320312-3.996094-1.933594-6.007813-.296874-.96875-.59375-1.945312-.871093-2.925781-.289063-.984375-.566407-1.980469-.835938-2.96875-.257812-.929687-.496093-1.847656-.738281-2.777343-.054688-.203126-.105469-.402344-.152344-.605469-.21875-.851563-.429687-1.707031-.632812-2.558594-.019532-.058594-.027344-.125-.046875-.183594-.230469-.976562-.453125-1.945312-.671875-2.921875-.230469-1.003906-.441406-2.023437-.652344-3.046875-.199219-.960937-.390625-1.925781-.582031-2.894531-.011719-.058594-.019531-.113281-.027344-.171875-.183594-.96875-.367187-1.9375-.539063-2.914063-.132812-.75-.257812-1.496093-.375-2.242187-.09375-.546875-.179687-1.101563-.265624-1.648437-.152344-.996094-.308594-1.984376-.441407-2.980469-.125-.875-.238281-1.753907-.34375-2.636719-.136719-1.046875-.257812-2.089844-.375-3.144531-.125-1.042969-.230469-2.097657-.324219-3.152344-.105468-1.054687-.191406-2.117187-.277343-3.171875-.058594-.699219-.105469-1.398438-.15625-2.109375-.027344-.34375-.046875-.679687-.066407-1.015625-.027343-.371094-.046874-.738281-.066406-1.101562-.050781-.71875-.085937-1.4375-.117187-2.15625-.046875-1.074219-.09375-2.148438-.125-3.222657-.027344-.9375-.054688-1.875-.066407-2.816406-.027343-1.207031-.039062-2.425781-.039062-3.640625 0-2.714844.058594-5.425781.164062-8.109375.027344-.851563.066407-1.695313.113282-2.546875.058594-1.179688.136718-2.359375.222656-3.527344.027344-.585937.074219-1.171875.125-1.746094.066406-.871093.132812-1.753906.21875-2.625.144531-1.523437.296875-3.046874.472656-4.570312.09375-.84375.199219-1.6875.304688-2.523438.105468-.839843.21875-1.683593.335937-2.519531.074219-.554687.152344-1.121093.238281-1.675781.078126-.5.144532-.988281.230469-1.488281.09375-.613281.191407-1.226563.296875-1.839844.097656-.59375.191406-1.1875.304688-1.78125.097656-.558594.195312-1.113281.300781-1.667969.121094-.710937.257813-1.417968.402344-2.117187.191406-.988281.382812-1.976563.59375-2.964844 5.824219-1.578125 11.960937-2.421875 18.292969-2.421875 20.605468 0 39.121093 8.921875 51.914062 23.105469zm0 0" fill="url(#d)"/><path d="m480.882812 238.757812c-3.125 16.6875-8.320312 32.644532-15.296874 47.601563l-185.429688-185.421875-23.433594-23.429688c-5.683594-4.09375-9.382812-10.761718-9.382812-18.292968 0-12.449219 10.09375-22.542969 22.539062-22.542969 7.535156 0 14.203125 3.699219 18.296875 9.382813l34.597657 34.597656zm0 0" fill="url(#e)"/><path d="m484.351562 201.375c0 21.8125-3.46875 42.820312-9.890624 62.492188h-135.292969c-7.722657 0-13.980469-6.265626-13.980469-13.988282v-15.335937c0-3.863281-1.574219-7.359375-4.101562-9.890625-2.53125-2.53125-6.03125-4.089844-9.890626-4.089844-25.4375 0-46.058593-20.625-46.058593-46.058594v-33.851562c0-33.167969 26.882812-60.050782 60.050781-60.050782h37.191406c7.726563 0 13.984375-6.257812 13.984375-13.980468v-2.539063c0-7.726562 6.265625-13.984375 13.992188-13.984375h25.53125c41.976562 36.898438 68.464843 90.996094 68.464843 151.277344zm0 0" fill="url(#g)"/><path d="m174.085938 227.125c0 38.09375-30.476563 69.070312-68.390626 69.855469-15.371093-28.445313-24.101562-61-24.101562-95.605469 0-14.300781 1.484375-28.234375 4.320312-41.6875v-.011719c5.828126-1.582031 11.960938-2.421875 18.296876-2.421875 38.59375 0 69.875 31.277344 69.875 69.871094zm0 0" fill="url(#h)"/><path d="m282.972656 402.753906c40.007813 0 77.292969-11.667968 108.636719-31.789062-12.761719-13.792969-31.019531-22.425782-51.296875-22.425782-.6875 0-1.375.007813-2.0625.03125-15.21875.4375-30.316406-3.453124-42.859375-12.082031-11.246094-7.738281-24.867187-12.265625-39.550781-12.265625-33.339844 0-61.203125 23.351563-68.175782 54.589844 28.375 15.269531 60.824219 23.941406 95.308594 23.941406zm0 0" fill="url(#i)"/><path d="m292.417969 59.207031c0 12.449219-10.09375 22.539063-22.539063 22.539063-12.449218 0-22.539062-10.089844-22.539062-22.539063 0-12.445312 10.089844-22.539062 22.539062-22.539062 12.445313 0 22.539063 10.09375 22.539063 22.539062zm0 0" fill="url(#j)"/><path d="m484.347656 201.378906c0 111.214844-90.15625 201.375-201.375 201.375s-201.378906-90.160156-201.378906-201.375c0-111.21875 90.160156-201.378906 201.378906-201.378906s201.375 90.160156 201.375 201.378906zm0 0" fill="url(#k)"/><path d="m207.398438 352.636719c6.75 6.753906 33.023437 19.253906 40.429687 21.121093.183594.03125.363281.070313.546875.109376.789062.167968 79.949219 15.664062 120.625-24.378907 9.042969-8.902343 24.089844-9.382812 33.070312-.417969 9.035157 9.023438 9.039063 23.660157.011719 32.6875-57.789062 57.789063-155.777343 38.867188-163.050781 37.363282-2.269531-.449219-5.242188-1.3125-8.664062-2.5l-.839844-.199219c-35.777344-8.476563-73.394532 2.195313-99.394532 28.195313-3.546874 3.546874-9.292968 3.546874-12.839843 0l-50.632813-50.632813c-5.15625-5.15625-5.15625-13.515625 0-18.671875l22.671875-22.675781c32.550781-32.550781 85.515625-32.550781 118.066407 0zm0 0" fill="url(#m)"/><path d="m230.371094 416.621094c3.417968 1.1875 6.390625 2.054687 8.664062 2.5 3.742188.773437 31.5 6.15625 65.441406 3.332031v-46.488281c-29.734374 3.070312-55.652343-2.003906-56.101562-2.097656-.183594-.039063-.363281-.078126-.546875-.109376-7.40625-1.871093-33.679687-14.371093-40.429687-21.121093-32.550782-32.550781-85.515626-32.550781-118.066407 0l-22.671875 22.675781c-5.15625 5.15625-5.15625 13.515625 0 18.671875l50.632813 50.632813c3.546875 3.546874 9.296875 3.546874 12.839843 0 26-25.996094 63.617188-36.667969 99.394532-28.195313zm0 0" fill="url(#n)"/><path d="m168.175781 379.769531c.792969.789063 1.648438 1.53125 2.574219 2.21875 20.257812 15.066407 45.347656 22.40625 70.640625 20.660157 25.5625-1.761719 49.621094-12.71875 67.753906-30.851563 9.023438-9.023437 9.023438-23.652344 0-32.675781-9.023437-9.023438-23.648437-9.023438-32.671875 0-20.894531 20.894531-54.488281 23.382812-78.148437 5.789062-10.238281-7.613281-24.710938-5.488281-32.324219 4.753906-6.929688 9.3125-5.792969 22.132813 2.175781 30.105469zm0 0" fill="url(#o)"/><path d="m73.210938 342.214844-17.789063 17.789062c-4.292969 4.292969-4.292969 11.25 0 15.542969l81.523437 81.523437c4.292969 4.289063 11.253907 4.289063 15.542969 0l17.789063-17.789062c4.289062-4.292969 4.289062-11.253906 0-15.546875l-81.523438-81.519531c-4.292968-4.292969-11.25-4.292969-15.542968 0zm0 0" fill="url(#p)"/><path d="m42.597656 351.703125-38.742187 38.742187c-4.476563 4.476563-4.476563 11.734376 0 16.210938l101.980469 101.980469c4.476562 4.476562 11.734374 4.476562 16.210937 0l38.742187-38.742188c4.476563-4.476562 4.476563-11.734375 0-16.210937l-101.980468-101.980469c-4.476563-4.476563-11.734375-4.476563-16.210938 0zm0 0" fill="url(#q)"/></svg>