<svg viewBox="0 -12 512.00348 512" xmlns="http://www.w3.org/2000/svg" xmlns:xlink="http://www.w3.org/1999/xlink"><radialGradient id="a" cx="267.78058944" cy="244.4406" gradientUnits="userSpaceOnUse" r="278.13503208"><stop offset="0" stop-color="#0ff" stop-opacity="0"/><stop offset=".9004" stop-color="#0ff" stop-opacity=".901961"/><stop offset="1" stop-color="#0ff"/></radialGradient><radialGradient id="b" cx="268.05666744" cy="266.72360832" gradientUnits="userSpaceOnUse" r="116.64345696"><stop offset="0" stop-color="#ffb92d"/><stop offset=".336" stop-color="#fec259" stop-opacity=".662745"/><stop offset=".782" stop-color="#fccd8d" stop-opacity=".219608"/><stop offset="1" stop-color="#fbd1a2" stop-opacity="0"/></radialGradient><radialGradient id="c" cx="248.53644696" cy="233.999832" gradientUnits="userSpaceOnUse" r="123.83052024"><stop offset="0" stop-color="#feffb3"/><stop offset=".2201" stop-color="#fefdb0"/><stop offset=".3901" stop-color="#fef8a6"/><stop offset=".5433" stop-color="#fef096"/><stop offset=".6866" stop-color="#fee47e"/><stop offset=".8232" stop-color="#ffd460"/><stop offset=".9528" stop-color="#ffc13c"/><stop offset="1" stop-color="#ffb92d"/></radialGradient><linearGradient id="d"><stop offset="0" stop-color="#cfffb4"/><stop offset="1" stop-color="#8ee388"/></linearGradient><linearGradient id="e" gradientUnits="userSpaceOnUse" x1="109.279692" x2="205.88992536" xlink:href="#d" y1="205.1772888" y2="360.59314008"/><linearGradient id="f"><stop offset="0" stop-color="#8ee388" stop-opacity="0"/><stop offset="1" stop-color="#4b9345"/></linearGradient><linearGradient id="g" gradientUnits="userSpaceOnUse" x1="127.37133432" x2="252.6846444" xlink:href="#f" y1="251.28432264" y2="577.51916976"/><linearGradient id="h" gradientUnits="userSpaceOnUse" x1="124.79427168" x2="152.79661224" xlink:href="#f" y1="276.79292592" y2="510.61593312"/><linearGradient id="i"><stop offset="0" stop-color="#acfcd9"/><stop offset="1" stop-color="#53d6be"/></linearGradient><linearGradient id="j" gradientUnits="userSpaceOnUse" x1="373.10886408" x2="448.80744384" xlink:href="#i" y1="168.9508356" y2="244.64841144"/><linearGradient id="k"><stop offset="0" stop-color="#53d6be" stop-opacity="0"/><stop offset=".2513" stop-color="#51b4a7" stop-opacity=".25098"/><stop offset=".5767" stop-color="#508d8e" stop-opacity=".576471"/><stop offset=".8378" stop-color="#4e767f" stop-opacity=".839216"/><stop offset="1" stop-color="#4e6d79"/></linearGradient><linearGradient id="l" gradientUnits="userSpaceOnUse" x1="439.0473336" x2="361.39010592" xlink:href="#k" y1="184.5216348" y2="184.5216348"/><linearGradient id="m" gradientUnits="userSpaceOnUse" x1="448.90683192" x2="370.60107192" xlink:href="#k" y1="216.77356872" y2="192.27992856"/><linearGradient id="n"><stop offset="0" stop-color="#827a74"/><stop offset="1" stop-color="#605b55"/></linearGradient><linearGradient id="o" gradientUnits="userSpaceOnUse" x1="399.22584288" x2="407.57544552" xlink:href="#n" y1="219.45403512" y2="219.45403512"/><linearGradient id="p" gradientUnits="userSpaceOnUse" x1="379.76886936" x2="407.3636184" xlink:href="#n" y1="184.67824632" y2="184.67824632"/><linearGradient id="q" gradientUnits="userSpaceOnUse" x1="365.67684432" x2="406.6106784" xlink:href="#n" y1="226.24254216" y2="226.24254216"/><linearGradient id="r" gradientUnits="userSpaceOnUse" x1="427.77531984" x2="400.1805708" xlink:href="#n" y1="167.97803712" y2="167.97803712"/><linearGradient id="s" gradientUnits="userSpaceOnUse" x1="441.86634096" x2="400.9335108" xlink:href="#n" y1="209.54233296" y2="209.54233296"/><linearGradient id="t" gradientUnits="userSpaceOnUse" x1="335.47893072" x2="388.2640404" xlink:href="#d" y1="219.20606688" y2="271.99218048"/><linearGradient id="u" gradientUnits="userSpaceOnUse" x1="381.45846672" x2="327.306018" xlink:href="#f" y1="230.0644656" y2="230.0644656"/><linearGradient id="v" gradientUnits="userSpaceOnUse" x1="388.33331088" x2="333.72909816" xlink:href="#f" y1="252.55327752" y2="235.47358656"/><linearGradient id="w" gradientUnits="userSpaceOnUse" x1="353.69003952" x2="359.51277552" xlink:href="#n" y1="254.42257656" y2="254.42257656"/><linearGradient id="x" gradientUnits="userSpaceOnUse" x1="340.12206072" x2="359.36419536" xlink:href="#n" y1="230.17288896" y2="230.17288896"/><linearGradient id="y" gradientUnits="userSpaceOnUse" x1="330.29569176" x2="358.8391452" xlink:href="#n" y1="259.15706328" y2="259.15706328"/><linearGradient id="z" gradientUnits="userSpaceOnUse" x1="373.59777312" x2="354.35563848" xlink:href="#n" y1="218.52741696" y2="218.52741696"/><linearGradient id="A" gradientUnits="userSpaceOnUse" x1="383.42414208" x2="354.88068864" xlink:href="#n" y1="247.51159128" y2="247.51159128"/><linearGradient id="B" gradientUnits="userSpaceOnUse" x1="340.49853072" x2="341.54863104" xlink:href="#d" y1="351.21150768" y2="471.9740484"/><linearGradient id="C" gradientUnits="userSpaceOnUse" x1="363.11684832" x2="408.34846392" xlink:href="#f" y1="341.71643232" y2="459.46922088"/><linearGradient id="D" gradientUnits="userSpaceOnUse" x1="406.39784736" x2="421.09122048" xlink:href="#f" y1="339.01789536" y2="461.7089664"/><linearGradient id="E" gradientUnits="userSpaceOnUse" x1="132.07771128" x2="54.7567968" xlink:href="#f" y1="361.6833972" y2="284.36248272"/><linearGradient id="F" gradientUnits="userSpaceOnUse" x1="334.19993664" x2="-41.98996968" xlink:href="#i" y1="209.97401856" y2="404.55479688"/><linearGradient id="G" gradientUnits="userSpaceOnUse" x1="47.36192208" x2="47.36192208" xlink:href="#k" y1="187.64984952" y2="291.2082132"/><linearGradient id="H" gradientUnits="userSpaceOnUse" x1="205.10485992" x2="28.48521432" xlink:href="#i" y1="271.3305972" y2="574.67807616"/><path d="m484.496094 244.441406c0 119.6875-97.027344 216.714844-216.714844 216.714844s-216.714844-97.027344-216.714844-216.714844c0-119.691406 97.027344-216.714844 216.714844-216.714844s216.714844 97.023438 216.714844 216.714844zm0 0" fill="#fff"/><path d="m484.496094 244.441406c0 119.6875-97.027344 216.714844-216.714844 216.714844s-216.714844-97.027344-216.714844-216.714844c0-119.691406 97.027344-216.714844 216.714844-216.714844s216.714844 97.023438 216.714844 216.714844zm0 0" fill="url(#a)"/><path d="m391.3125 266.722656c0 68.226563-55.304688 123.535156-123.53125 123.535156s-123.53125-55.308593-123.53125-123.535156c0-68.222656 55.304688-123.53125 123.53125-123.53125s123.53125 55.308594 123.53125 123.53125zm0 0" fill="url(#b)"/><path d="m344.425781 266.722656c0 42.332032-34.316406 76.644532-76.644531 76.644532s-76.644531-34.3125-76.644531-76.644532c0-42.328125 34.316406-76.644531 76.644531-76.644531s76.644531 34.316406 76.644531 76.644531zm0 0" fill="url(#c)"/><path d="m78.769531 216.902344c-8.800781 0-17.503906.417968-26.105469 1.199218-1.046874 8.632813-1.597656 17.421876-1.597656 26.339844 0 119.6875 97.027344 216.714844 216.714844 216.714844 32.207031 0 62.769531-7.035156 90.246094-19.640625-28.035156-128.441406-142.40625-224.613281-279.257813-224.613281zm0 0" fill="url(#e)"/><path d="m294.316406 459.535156c-8.691406 1.070313-17.546875 1.617188-26.535156 1.617188-17.273438 0-34.085938-2.027344-50.195312-5.847656-93.230469-22.097657-163.132813-104.425782-166.390626-203.617188-.082031-2.40625-.125-4.820312-.125-7.246094 0-6.625.304688-13.179687.894532-19.65625 118.304687 26.585938 212.109375 117.871094 242.351562 234.75zm0 0" fill="url(#g)"/><path d="m217.585938 455.304688c-93.230469-22.097657-163.132813-104.425782-166.390626-203.617188 80.753907 40.890625 142.058594 114.617188 166.390626 203.617188zm0 0" fill="url(#h)"/><path d="m440.652344 250.980469c-24.808594 8.371093-49.699219 8.371093-74.503906-.003907-14.246094-4.808593-22.253907-20.035156-17.890626-34.425781 4.460938-14.710937 11.765626-29.203125 18.085938-42.929687 8.246094-17.910156 16.828125-35.71875 24.652344-53.722656 4.710937-10.835938 20.097656-10.835938 24.808594 0 7.828124 18.003906 16.40625 35.8125 24.652343 53.722656 6.324219 13.726562 13.628907 28.21875 18.089844 42.929687 4.363281 14.394531-3.644531 29.621094-17.894531 34.429688zm0 0" fill="url(#j)"/><path d="m440.457031 173.621094c-8.246093-17.910156-16.824219-35.71875-24.652343-53.722656-2.265626-5.21875-7.011719-7.914063-11.847657-8.109376v145.464844c12.238281-.0625 24.476563-2.148437 36.695313-6.273437 14.25-4.808594 22.257812-20.035157 17.894531-34.429688-4.460937-14.710937-11.765625-29.203125-18.089844-42.929687zm0 0" fill="url(#l)"/><path d="m440.652344 250.980469c14.25-4.808594 22.257812-20.039063 17.894531-34.429688-4.460937-14.710937-11.765625-29.203125-18.089844-42.929687-1.210937-2.632813-2.429687-5.261719-3.652343-7.890625l-12.09375-12.171875-.683594-.480469c-2.269532 2.058594-4.40625 4.214844-6.558594 6.363281-.527344.53125-1.042969 1.078125-1.5625 1.617188-.015625-.242188-.023438-.488282-.039062-.734375h-.835938c-.03125.578125-.058594 1.15625-.089844 1.734375-.128906.132812-.265625.269531-.394531.40625-.0625-1.214844-.121094-2.429688-.1875-3.644532h-.835937l-9.707032-10.542968h-.835937c-.660157 11.863281-1.160157 23.722656-1.671875 35.585937l-.128906 3.386719-11.433594-11.4375c-2.039063-2.039062-4.074219-4.078125-6.230469-6.035156l-.679687.484375c1.191406 2.824219 2.519531 5.554687 3.832031 8.292969 1.324219 2.730468 2.714843 5.417968 4.175781 8.054687.730469 1.316406 1.300781 2.746094 1.949219 4.121094.644531 1.378906 1.496093 2.613281 2.5625 3.691406l5.34375 5.3125-.074219 1.925781-.5625 17.792969c-.128906 4.246094-.335938 8.488281-.546875 12.734375-.003906-.003906-.007813-.007812-.015625-.015625-.097656-.105469-.191406-.214844-.289062-.320313-.390626-.414062-.796876-.804687-1.21875-1.183593-.09375-.105469-.1875-.21875-.289063-.320313-1.324219-1.414062-2.824219-2.621094-4.480469-3.632812-1.652344-1.015625-3.367187-1.960938-4.957031-3.050782-3.183594-2.183593-6.414063-4.304687-9.703125-6.363281-3.292969-2.050781-6.578125-4.109375-9.964844-6.039062l-.53125.644531c2.546875 2.953125 5.199219 5.777344 7.84375 8.617188 2.652344 2.828124 5.355469 5.59375 8.113282 8.296874 1.378906 1.347657 2.632812 2.847657 3.949218 4.277344l11.105469 11.121094c-.046875 3.605469-.003906 7.214844.148437 10.820312.027344.714844.066407 1.425782.101563 2.140626 13.78125.507812 27.566406-1.554688 41.324219-6.199219zm0 0" fill="url(#m)"/><path d="m403.820312 148.273438c.65625 11.863281 1.15625 23.726562 1.667969 35.589843l.6875 17.796875.566407 17.792969c.175781 5.929687.507812 11.863281.792968 17.792969.261719 5.933594.292969 11.863281.039063 17.796875-.242188 5.929687-.640625 11.863281-1.222657 17.792969-.597656 5.933593-1.335937 11.863281-2.535156 17.796874h-.832031c-1.199219-5.933593-1.9375-11.863281-2.535156-17.796874-.578125-5.929688-.980469-11.863282-1.222657-17.792969-.253906-5.933594-.222656-11.863281.039063-17.796875.285156-5.929688.617187-11.863282.792969-17.792969l.566406-17.792969.6875-17.796875c.511719-11.863281 1.007812-23.726562 1.671875-35.589843zm0 0" fill="url(#o)"/><path d="m383.515625 169.777344c2.273437 2.0625 4.410156 4.214844 6.558594 6.363281 2.136719 2.15625 4.210937 4.355469 6.21875 6.605469 1 1.125 2.160156 2.136718 3.242187 3.203125 1.085938 1.066406 1.96875 2.277343 2.632813 3.640625.667969 1.363281 1.207031 2.816406 1.601562 4.375.375 1.566406.640625 3.214844.527344 5.128906l-.679687.484375c-1.84375-.53125-3.308594-1.324219-4.664063-2.199219-1.335937-.886718-2.53125-1.875-3.597656-2.957031-1.066407-1.078125-1.917969-2.3125-2.5625-3.691406-.648438-1.375-1.21875-2.804688-1.949219-4.121094-1.457031-2.640625-2.851562-5.324219-4.175781-8.054687-1.3125-2.738282-2.640625-5.46875-3.832031-8.292969zm0 0" fill="url(#p)"/><path d="m368.597656 211.261719c3.386719 1.933593 6.671875 3.992187 9.964844 6.039062 3.289062 2.058594 6.519531 4.179688 9.703125 6.363281 1.589844 1.089844 3.304687 2.035157 4.957031 3.050782 1.65625 1.011718 3.15625 2.21875 4.480469 3.632812 1.328125 1.410156 2.5625 2.9375 3.675781 4.609375 1.105469 1.683594 2.121094 3.472657 2.84375 5.621094l-.53125.644531c-2.246094-.296875-4.199218-.949218-6.0625-1.710937-1.851562-.769531-3.589844-1.683594-5.230468-2.71875-1.644532-1.027344-3.113282-2.265625-4.425782-3.695313-1.316406-1.429687-2.570312-2.929687-3.949218-4.277344-2.753907-2.707031-5.460938-5.46875-8.113282-8.296874-2.640625-2.839844-5.296875-5.667969-7.84375-8.621094zm0 0" fill="url(#q)"/><path d="m424.710938 153.558594c-1.195313 2.824218-2.519532 5.558594-3.832032 8.296875-1.328125 2.730469-2.71875 5.414062-4.175781 8.054687-.730469 1.316406-1.300781 2.746094-1.949219 4.121094-.648437 1.378906-1.496094 2.613281-2.566406 3.6875-1.0625 1.082031-2.257812 2.070312-3.597656 2.957031-1.351563.875-2.820313 1.671875-4.664063 2.199219l-.679687-.480469c-.113282-1.914062.152344-3.5625.53125-5.132812.394531-1.554688.929687-3.007813 1.597656-4.371094.664062-1.367187 1.546875-2.574219 2.632812-3.640625 1.082032-1.066406 2.246094-2.082031 3.246094-3.207031 2.003906-2.25 4.078125-4.449219 6.214844-6.605469 2.152344-2.144531 4.289062-4.300781 6.558594-6.363281zm0 0" fill="url(#r)"/><path d="m439.480469 195.207031c-2.550781 2.953125-5.203125 5.78125-7.847657 8.617188-2.652343 2.828125-5.355468 5.59375-8.109374 8.296875-1.378907 1.347656-2.632813 2.851562-3.949219 4.277344-1.3125 1.429687-2.785157 2.667968-4.425781 3.695312-1.640626 1.035156-3.378907 1.949219-5.230469 2.722656-1.867188.757813-3.820313 1.410156-6.0625 1.707032l-.53125-.644532c.722656-2.144531 1.738281-3.9375 2.84375-5.621094 1.113281-1.667968 2.34375-3.199218 3.675781-4.609374 1.324219-1.414063 2.824219-2.621094 4.480469-3.632813 1.652343-1.015625 3.367187-1.957031 4.957031-3.050781 3.183594-2.183594 6.417969-4.304688 9.703125-6.363282 3.292969-2.046874 6.578125-4.105468 9.964844-6.039062zm0 0" fill="url(#s)"/><path d="m382.578125 276.40625c-17.300781 5.839844-34.65625 5.839844-51.953125 0-9.933594-3.355469-15.519531-13.972656-12.476562-24.007812 3.113281-10.257813 8.207031-20.363282 12.613281-29.9375 5.753906-12.488282 11.734375-24.90625 17.191406-37.460938 3.285156-7.554688 14.015625-7.554688 17.300781 0 5.457032 12.554688 11.4375 24.972656 17.191406 37.460938 4.40625 9.574218 9.5 19.679687 12.609376 29.9375 3.042968 10.035156-2.539063 20.652343-12.476563 24.007812zm0 0" fill="url(#t)"/><path d="m382.441406 222.460938c-5.75-12.488282-11.730468-24.90625-17.1875-37.460938-1.582031-3.636719-4.890625-5.519531-8.261718-5.652344v101.433594c8.53125-.042969 17.066406-1.5 25.585937-4.375 9.9375-3.355469 15.519531-13.972656 12.476563-24.007812-3.109376-10.257813-8.203126-20.363282-12.613282-29.9375zm0 0" fill="url(#u)"/><path d="m382.578125 276.40625c9.9375-3.355469 15.519531-13.972656 12.476563-24.007812-3.109376-10.257813-8.203126-20.363282-12.609376-29.9375-.847656-1.832032-1.695312-3.667969-2.550781-5.5l-8.433593-8.488282-.472657-.335937c-1.582031 1.4375-3.074219 2.941406-4.574219 4.4375-.367187.375-.726562.753906-1.089843 1.128906-.007813-.171875-.015625-.339844-.027344-.511719h-.582031c-.019532.402344-.039063.804688-.0625 1.207032-.089844.097656-.183594.191406-.273438.285156-.046875-.847656-.082031-1.695313-.128906-2.542969h-.585938l-6.769531-7.351563h-.582031c-.460938 8.273438-.808594 16.546876-1.164062 24.816407l-.089844 2.363281-7.976563-7.976562c-1.421875-1.421876-2.839843-2.84375-4.34375-4.207032l-.476562.335938c.832031 1.96875 1.757812 3.875 2.675781 5.785156.925781 1.902344 1.894531 3.777344 2.910156 5.613281.507813.921875.90625 1.917969 1.359375 2.875.453125.960938 1.042969 1.824219 1.789063 2.574219l3.726562 3.707031-.054687 1.339844-.390625 12.40625c-.089844 2.960937-.234375 5.921875-.382813 8.882813-.003906-.003907-.003906-.007813-.007812-.011719-.070313-.070313-.136719-.148438-.203125-.222657-.273438-.289062-.558594-.5625-.847656-.828124-.070313-.070313-.136719-.148438-.203126-.222657-.925781-.984375-1.96875-1.824219-3.125-2.53125-1.152343-.707031-2.347656-1.367187-3.457031-2.128906-2.21875-1.519531-4.472656-3-6.765625-4.4375-2.296875-1.425781-4.585937-2.863281-6.949218-4.210937l-.371094.449218c1.777344 2.0625 3.625 4.03125 5.46875 6.011719 1.851562 1.972656 3.738281 3.902344 5.65625 5.785156.964844.941407 1.839844 1.988281 2.753906 2.984375l7.746094 7.753906c-.03125 2.515626-.003906 5.03125.105468 7.546876.019532.496093.046876.996093.070313 1.488281 9.605469.351562 19.21875-1.085938 28.8125-4.324219zm0 0" fill="url(#v)"/><path d="m356.894531 204.789062c.457031 8.273438.808594 16.542969 1.164063 24.816407l.480468 12.410156.390626 12.40625c.125 4.136719.359374 8.273437.554687 12.410156.183594 4.136719.207031 8.269531.03125 12.40625-.171875 4.136719-.449219 8.273438-.855469 12.410157-.417968 4.136718-.929687 8.273437-1.765625 12.40625h-.582031c-.835938-4.132813-1.347656-8.269532-1.765625-12.40625-.40625-4.136719-.683594-8.273438-.855469-12.410157-.175781-4.136719-.152344-8.269531.03125-12.40625.195313-4.136719.425782-8.273437.550782-12.410156l.394531-12.40625.480469-12.410156c.355468-8.273438.703124-16.542969 1.164062-24.816407zm0 0" fill="url(#w)"/><path d="m342.734375 219.78125c1.585937 1.4375 3.074219 2.941406 4.574219 4.4375 1.492187 1.503906 2.9375 3.039062 4.335937 4.605469.699219.785156 1.507813 1.492187 2.261719 2.238281.757812.742188 1.375 1.585938 1.835938 2.539062.464843.949219.84375 1.960938 1.117187 3.046876.261719 1.09375.445313 2.242187.371094 3.578124l-.476563.335938c-1.285156-.367188-2.308594-.921875-3.253906-1.535156-.933594-.617188-1.765625-1.308594-2.507812-2.0625-.746094-.75-1.335938-1.609375-1.785157-2.570313-.453125-.960937-.851562-1.957031-1.363281-2.875-1.015625-1.839843-1.984375-3.710937-2.910156-5.617187-.914063-1.910156-1.839844-3.8125-2.671875-5.785156zm0 0" fill="url(#x)"/><path d="m332.332031 248.710938c2.363281 1.347656 4.652344 2.78125 6.949219 4.210937 2.292969 1.433594 4.546875 2.914063 6.769531 4.4375 1.105469.761719 2.300781 1.417969 3.453125 2.128906 1.15625.703125 2.203125 1.546875 3.125 2.53125.925782.984375 1.785156 2.050781 2.5625 3.214844.773438 1.171875 1.480469 2.421875 1.984375 3.917969l-.371093.449218c-1.566407-.207031-2.925782-.660156-4.226563-1.191406-1.292969-.539062-2.503906-1.175781-3.648437-1.894531-1.144532-.71875-2.171876-1.582031-3.085938-2.578125-.917969-.996094-1.792969-2.042969-2.753906-2.984375-1.921875-1.882813-3.808594-3.8125-5.65625-5.785156-1.84375-1.980469-3.695313-3.949219-5.472656-6.011719zm0 0" fill="url(#y)"/><path d="m371.460938 208.472656c-.832032 1.972656-1.757813 3.875-2.671876 5.785156-.925781 1.90625-1.894531 3.777344-2.910156 5.617188-.511718.917969-.910156 1.914062-1.363281 2.875-.449219.960938-1.039063 1.820312-1.785156 2.570312-.742188.753907-1.574219 1.445313-2.507813 2.0625-.945312.613282-1.96875 1.167969-3.253906 1.535157l-.476562-.335938c-.074219-1.335937.109374-2.484375.371093-3.578125.273438-1.085937.652344-2.097656 1.117188-3.046875.460937-.953125 1.078125-1.796875 1.835937-2.539062.753906-.746094 1.5625-1.453125 2.261719-2.238281 1.398437-1.566407 2.84375-3.101563 4.335937-4.605469 1.5-1.496094 2.988282-3 4.574219-4.4375zm0 0" fill="url(#z)"/><path d="m381.761719 237.515625c-1.777344 2.058594-3.628907 4.03125-5.472657 6.007813-1.847656 1.972656-3.734374 3.902343-5.65625 5.789062-.960937.941406-1.835937 1.984375-2.753906 2.980469-.914062.996093-1.941406 1.859375-3.085937 2.578125s-2.355469 1.359375-3.648438 1.898437c-1.300781.527344-2.664062.984375-4.226562 1.191407l-.371094-.453126c.503906-1.496093 1.210937-2.742187 1.980469-3.917968.78125-1.164063 1.636718-2.230469 2.566406-3.214844.921875-.984375 1.96875-1.824219 3.121094-2.53125 1.15625-.707031 2.347656-1.367188 3.457031-2.128906 2.21875-1.523438 4.476563-3 6.765625-4.4375 2.296875-1.425782 4.589844-2.863282 6.953125-4.210938zm0 0" fill="url(#A)"/><path d="m483.105469 268.992188c-.34375 3.171874-.765625 6.3125-1.269531 9.441406-1.878907 11.9375-4.734376 23.5625-8.484376 34.769531-20.101562 60.140625-65.84375 108.519531-124.261718 132.175781-25.105469 10.175782-52.558594 15.773438-81.308594 15.773438-.609375 0-1.207031 0-1.816406-.011719-23.753906-.1875-46.59375-4.210937-67.933594-11.457031 41.722656-106.175782 145.136719-181.332032 266.109375-181.332032 6.375 0 12.699219.21875 18.964844.640626zm0 0" fill="url(#B)"/><path d="m481.835938 278.433594c-1.878907 11.9375-4.734376 23.5625-8.484376 34.769531-20.101562 60.136719-65.84375 108.515625-124.257812 132.175781-25.109375 10.175782-52.558594 15.773438-81.3125 15.773438-.609375 0-1.207031 0-1.816406-.011719 39.789062-89.710937 119.113281-157.988281 215.871094-182.707031zm0 0" fill="url(#C)"/><path d="m349.09375 445.378906c28.035156-54.984375 71.3125-100.90625 124.257812-132.175781-20.101562 60.140625-65.84375 108.515625-124.257812 132.175781zm0 0" fill="url(#D)"/><path d="m266.648438 453.429688-172.164063-169.191407-.617187-.445312c-1.105469-1.640625-2.492188-3.132813-4.1875-4.359375l-29.359376-21.226563-1.355468-.976562c6.59375 109.167969 96.972656 195.71875 207.683594 196.199219zm0 0" fill="url(#E)"/><path d="m267.566406 488.878906c-134.785156 0-244.441406-109.652344-244.441406-244.4375s109.65625-244.441406 244.441406-244.441406c134.78125 0 244.4375 109.65625 244.4375 244.441406s-109.65625 244.4375-244.4375 244.4375zm0-453.832031c-115.460937 0-209.394531 93.933594-209.394531 209.394531 0 115.457032 93.933594 209.390625 209.394531 209.390625 115.457032 0 209.390625-93.933593 209.390625-209.390625 0-115.460937-93.933593-209.394531-209.390625-209.394531zm0 0" fill="url(#F)"/><path d="m58.171875 244.441406c0-25.953125 4.757813-50.808594 13.425781-73.761718h-37.089844c-7.386718 23.285156-11.382812 48.066406-11.382812 73.761718 0 12.761719.988281 25.296875 2.882812 37.535156h35.542969c-2.214843-12.183593-3.378906-24.726562-3.378906-37.535156zm0 0" fill="url(#G)"/><path d="m67.382812 305.882812 2.078126 1.507813c7.726562 5.578125 18.492187 3.855469 24.085937-3.871094 5.582031-7.710937 3.84375-18.503906-3.867187-24.085937l-29.359376-21.226563-6.8125-4.917969c-.074218-.058593-.160156-.109374-.246093-.171874-.171875-.125-.34375-.234376-.53125-.34375-.246094-.160157-.503907-.320313-.75-.46875-.199219-.109376-.394531-.222657-.59375-.320313-.269531-.148437-.539063-.269531-.8125-.394531-.183594-.085938-.382813-.183594-.578125-.269532-.445313-.175781-.886719-.347656-1.332032-.484374-.207031-.058594-.40625-.109376-.613281-.171876-.296875-.085937-.59375-.160156-.902343-.234374-.207032-.046876-.417969-.085938-.628907-.121094-.332031-.0625-.664062-.113282-.984375-.148438-.183594-.023437-.371094-.050781-.554687-.074218-.53125-.039063-1.046875-.074219-1.578125-.074219-.527344 0-1.058594.035156-1.574219.074219-.199219.023437-.382813.050781-.582031.074218-.195313.023438-.394532.035156-.578125.074219-.109375.011719-.222657.050781-.320313.0625-.332031.058594-.652344.132813-.972656.207031-.222656.050782-.445312.113282-.664062.175782-.332032.085937-.652344.195312-.988282.304687-.195312.074219-.40625.148437-.613281.222656-.308594.136719-.628906.273438-.9375.40625-.195313.101563-.40625.1875-.601563.296875-.296874.148438-.582031.308594-.863281.46875-.199219.125-.40625.246094-.605469.367188-.257812.175781-.515624.347656-.765624.53125-.207032.148437-.417969.296875-.613282.457031-.234375.183594-.457031.367187-.679687.566406-.195313.171875-.394531.355469-.589844.542969-.210937.195312-.40625.40625-.617187.625-.171876.1875-.359376.382812-.53125.582031-.195313.234375-.378907.480469-.566407.714844-.109375.132813-.222656.257813-.320312.394531l-3.878907 5.359375-22.265624 30.800781c-5.578126 7.722657-3.855469 18.503907 3.867187 24.085938 7.714844 5.578125 18.507813 3.84375 24.085937-3.871094l1.023438-1.429687.304688-.414063c29.285156 102.183594 123.539062 177.1875 235.007812 177.1875v-35.046875c-94.082031 0-173.859375-62.378906-200.179688-147.949219zm0 0" fill="url(#H)"/></svg>