<svg id="Capa_1" enable-background="new 0 0 510 510" height="512" viewBox="0 0 510 510" width="512" xmlns="http://www.w3.org/2000/svg" xmlns:xlink="http://www.w3.org/1999/xlink"><linearGradient id="lg1"><stop offset="0" stop-color="#7acbff"/><stop offset="1" stop-color="#45a2e0"/></linearGradient><linearGradient id="SVGID_1_" gradientUnits="userSpaceOnUse" x1="156.004" x2="428.402" xlink:href="#lg1" y1="49.687" y2="322.085"/><linearGradient id="SVGID_2_" gradientTransform="matrix(-1 0 0 -1 566.795 364.971)" gradientUnits="userSpaceOnUse" x1="199.662" x2="378.709" xlink:href="#lg1" y1="98.75" y2="277.797"/><linearGradient id="lg2"><stop offset="0" stop-color="#2f73a0" stop-opacity="0"/><stop offset="1" stop-color="#2f73a0"/></linearGradient><linearGradient id="SVGID_3_" gradientUnits="userSpaceOnUse" x1="186.34" x2="100.279" xlink:href="#lg2" y1="169.356" y2="100.18"/><linearGradient id="lg3"><stop offset="0" stop-color="#ff755c"/><stop offset="1" stop-color="#ff4181"/></linearGradient><linearGradient id="SVGID_4_" gradientUnits="userSpaceOnUse" x1="279.976" x2="294.412" xlink:href="#lg3" y1="142.313" y2="156.749"/><linearGradient id="lg4"><stop offset="0" stop-color="#ffce47"/><stop offset="1" stop-color="#ff9356"/></linearGradient><linearGradient id="SVGID_5_" gradientUnits="userSpaceOnUse" x1="293.052" x2="311.745" xlink:href="#lg4" y1="155.382" y2="174.075"/><linearGradient id="SVGID_6_" gradientUnits="userSpaceOnUse" x1="301.946" x2="321.762" y1="164.281" y2="184.097"><stop offset="0" stop-color="#e4e08e"/><stop offset="1" stop-color="#6fa953"/></linearGradient><linearGradient id="SVGID_7_" gradientUnits="userSpaceOnUse" x1="451.459" x2="396.99" xlink:href="#lg2" y1="119.847" y2="135.643"/><linearGradient id="SVGID_8_" gradientTransform="matrix(1 0 0 -1 352.744 -1509.494)" gradientUnits="userSpaceOnUse" x1="-26.214" x2="60.028" y1="-1606.002" y2="-1606.002"><stop offset="0" stop-color="#ffe0ea"/><stop offset="1" stop-color="#ffc0d5"/></linearGradient><linearGradient id="SVGID_9_" gradientTransform="matrix(.707 .707 .707 -.707 1148.892 -950.369)" gradientUnits="userSpaceOnUse" x1="178.475" x2="302.98" xlink:href="#lg4" y1="-1342.74" y2="-1342.74"/><linearGradient id="SVGID_10_" gradientTransform="matrix(.707 .707 .707 -.707 1148.892 -950.369)" gradientUnits="userSpaceOnUse" x1="263.956" x2="202.395" xlink:href="#lg4" y1="-1315.363" y2="-1376.924"/><linearGradient id="SVGID_11_" gradientTransform="matrix(1 0 0 -1 352.744 -1509.494)" gradientUnits="userSpaceOnUse" x1="14.304" x2="36.309" y1="-1560.92" y2="-1560.92"><stop offset="0" stop-color="#2f73a0"/><stop offset="1" stop-color="#174461"/></linearGradient><linearGradient id="lg5"><stop offset="0" stop-color="#ffdecf"/><stop offset="1" stop-color="#faa68e"/></linearGradient><linearGradient id="SVGID_12_" gradientUnits="userSpaceOnUse" x1="79.241" x2="120.642" xlink:href="#lg5" y1="306.014" y2="398.863"/><linearGradient id="SVGID_13_" gradientUnits="userSpaceOnUse" x1="412.922" x2="454.323" xlink:href="#lg5" y1="306.014" y2="398.863"/><linearGradient id="SVGID_14_" gradientUnits="userSpaceOnUse" x1="246.651" x2="419.218" xlink:href="#lg5" y1="298.978" y2="471.545"/><linearGradient id="lg6"><stop offset="0" stop-color="#ff9356" stop-opacity="0"/><stop offset="1" stop-color="#ff4181"/></linearGradient><linearGradient id="SVGID_15_" gradientUnits="userSpaceOnUse" x1="264.562" x2="250.763" xlink:href="#lg6" y1="353.182" y2="200.67"/><linearGradient id="lg7"><stop offset="0" stop-color="#5a7587"/><stop offset="1" stop-color="#092a40"/></linearGradient><linearGradient id="SVGID_16_" gradientUnits="userSpaceOnUse" x1="244.064" x2="306.163" xlink:href="#lg7" y1="192.562" y2="360.594"/><linearGradient id="lg8"><stop offset="0" stop-color="#092a40" stop-opacity="0"/><stop offset="1" stop-color="#092a40"/></linearGradient><linearGradient id="SVGID_17_" gradientUnits="userSpaceOnUse" x1="116.188" x2="198.828" xlink:href="#lg8" y1="253.15" y2="322.282"/><linearGradient id="SVGID_18_" gradientUnits="userSpaceOnUse" x1="170.79" x2="203.295" xlink:href="#lg7" y1="356.404" y2="388.91"/><linearGradient id="SVGID_19_" gradientUnits="userSpaceOnUse" x1="181.052" x2="215.55" xlink:href="#lg8" y1="375.413" y2="311.252"/><linearGradient id="SVGID_20_" gradientUnits="userSpaceOnUse" x1="324.916" x2="357.422" xlink:href="#lg7" y1="356.404" y2="388.91"/><linearGradient id="SVGID_21_" gradientUnits="userSpaceOnUse" x1="335.178" x2="369.676" xlink:href="#lg8" y1="375.413" y2="311.252"/><linearGradient id="SVGID_22_" gradientUnits="userSpaceOnUse" x1="250.677" x2="276.442" xlink:href="#lg3" y1="439.006" y2="482.807"/><linearGradient id="SVGID_23_" gradientUnits="userSpaceOnUse" x1="257.243" x2="257.243" xlink:href="#lg6" y1="405.866" y2="344.304"/><linearGradient id="SVGID_24_" gradientUnits="userSpaceOnUse" x1="82.704" x2="141.473" y1="40.876" y2="99.644"><stop offset="0" stop-color="#ffebb4"/><stop offset="1" stop-color="#ffce47"/></linearGradient><linearGradient id="SVGID_25_" gradientUnits="userSpaceOnUse" x1="109.111" x2="109.111" y1="104.224" y2="132.998"><stop offset="0" stop-color="#ff9356" stop-opacity="0"/><stop offset="1" stop-color="#ff755c"/></linearGradient><linearGradient id="SVGID_26_" gradientUnits="userSpaceOnUse" x1="114.87" x2="86.968" y1="73.193" y2="16.986"><stop offset="0" stop-color="#ffebb4" stop-opacity="0"/><stop offset="1" stop-color="#fff5d9"/></linearGradient><linearGradient id="SVGID_27_" gradientUnits="userSpaceOnUse" x1="98.126" x2="126.144" y1="124.907" y2="163.074"><stop offset="0" stop-color="#45a2e0"/><stop offset="1" stop-color="#2f73a0"/></linearGradient><linearGradient id="lg9"><stop offset="0" stop-color="#c7e9ff"/><stop offset="1" stop-color="#7acbff"/></linearGradient><linearGradient id="SVGID_28_" gradientUnits="userSpaceOnUse" x1="109.112" x2="109.112" xlink:href="#lg9" y1="127.219" y2="138.32"/><linearGradient id="SVGID_29_" gradientUnits="userSpaceOnUse" x1="109.112" x2="109.112" xlink:href="#lg9" y1="144.206" y2="155.307"/><g><g><path d="m440.48 127.083h-8.018c-2.508-6.744-5.445-13.279-8.806-19.555l6.169-6.169c7.81-7.81 7.81-20.472 0-28.281l-42.425-42.425c-7.81-7.81-20.472-7.81-28.281 0l-7.956 7.956c-5.741-2.709-11.676-5.071-17.768-7.089v-11.522c0-11.045-8.954-19.998-19.998-19.998h-59.998c-11.045 0-19.998 8.953-19.998 19.998v11.523c-6.092 2.018-12.027 4.38-17.768 7.089l-7.956-7.956c-7.81-7.81-20.472-7.81-28.281 0l-42.425 42.425c-7.81 7.81-7.81 20.471 0 28.281l6.169 6.169c-3.361 6.276-6.297 12.812-8.806 19.555h-8.019c-11.045 0-19.998 8.953-19.998 19.998v59.998c0 11.045 8.953 19.998 19.998 19.998h4.43c2.335 8.002 5.273 15.747 8.777 23.173l-2.551 2.551c-7.81 7.81-7.81 20.472 0 28.281l42.423 42.423c7.81 7.81 20.472 7.811 28.283.002l.764-.763c7.939 4.252 16.288 7.836 24.961 10.708v.711c0 11.045 8.953 19.998 19.998 19.998h59.998c11.045 0 19.998-8.953 19.998-19.998v-.711c8.673-2.872 17.021-6.456 24.961-10.708l.764.763c7.811 7.809 20.473 7.808 28.283-.002l39.871-39.871.001-33.384c3.504-7.426 6.441-15.171 8.777-23.173h4.43c11.045 0 19.998-8.953 19.998-19.998v-59.998c-.003-11.045-8.957-19.999-20.001-19.999zm-157.082 119.327c-35.308 0-63.924-28.616-63.924-63.924s28.617-63.925 63.924-63.925 63.924 28.617 63.924 63.925-28.616 63.924-63.924 63.924z" fill="url(#SVGID_1_)"/><path d="m283.398 66.094c-64.288 0-116.391 52.104-116.391 116.391s52.104 116.391 116.391 116.391 116.391-52.104 116.391-116.391-52.104-116.391-116.391-116.391zm0 180.316c-35.308 0-63.924-28.616-63.924-63.924s28.617-63.925 63.924-63.925 63.924 28.617 63.924 63.925-28.616 63.924-63.924 63.924z" fill="url(#SVGID_2_)"/></g><path d="m219.473 182.486c0-23.769 12.978-44.489 32.226-55.505l-84.316-84.316-30.413 30.413c-7.81 7.81-7.81 20.472 0 28.281l6.169 6.169c-3.361 6.276-6.297 12.811-8.806 19.555h-8.019c-11.045 0-19.998 8.953-19.998 19.998v59.998c0 5.478 2.207 10.438 5.775 14.05h120.39c-8.157-10.733-13.008-24.119-13.008-38.643z" fill="url(#SVGID_3_)"/><g><path d="m333.144 115.831c-43.989 0-79.644 35.666-79.644 79.644 0 43.989 35.655 79.644 79.644 79.644 43.978 0 79.633-35.655 79.633-79.644.001-43.978-35.655-79.644-79.633-79.644zm0 59.589c11.068 0 20.055 8.976 20.055 20.055s-8.987 20.055-20.055 20.055c-11.079 0-20.055-8.976-20.055-20.055s8.976-20.055 20.055-20.055z" fill="url(#SVGID_4_)"/><path d="m333.144 137.128c-32.224 0-58.347 26.123-58.347 58.347s26.123 58.347 58.347 58.347 58.347-26.123 58.347-58.347-26.123-58.347-58.347-58.347zm0 78.403c-11.079 0-20.055-8.976-20.055-20.055s8.976-20.055 20.055-20.055c11.068 0 20.055 8.976 20.055 20.055.001 11.078-8.987 20.055-20.055 20.055z" fill="url(#SVGID_5_)"/><path d="m333.144 156.726c-21.406 0-38.749 17.354-38.749 38.749 0 21.406 17.343 38.749 38.749 38.749 21.395 0 38.749-17.343 38.749-38.749 0-21.395-17.353-38.749-38.749-38.749zm0 58.805c-11.079 0-20.055-8.976-20.055-20.055s8.976-20.055 20.055-20.055c11.068 0 20.055 8.976 20.055 20.055.001 11.078-8.987 20.055-20.055 20.055z" fill="url(#SVGID_6_)"/></g><path d="m431.121 99.925-59.228-59.228v180.432h82.809c3.568-3.612 5.775-8.572 5.775-14.05v-59.998c0-11.045-8.953-19.998-19.998-19.998h-8.018c-2.508-6.744-5.445-13.279-8.806-19.555l6.169-6.169c.462-.461.891-.941 1.297-1.434z" fill="url(#SVGID_7_)"/><g><g><path d="m326.53 124.393 30.181-63.764 11.55-9.217c1.861-3.932 14.33 9.217 14.33 9.217l30.181 63.764c-.001 23.886-86.242 23.886-86.242 0z" fill="url(#SVGID_8_)"/><path d="m412.778 209.348-.008-84.956c-3.227.866-6.831.881-10.412-.134-4.879-1.401-8.838-7.264-11.207-11.695-.519-.96-1.582-1.251-2.448-.937-.527.181-.992.582-1.228 1.196.008.008 0 .016 0 .016-.244.622-.519 1.228-.819 1.81-.15.275-.299.551-.449.826-.008.024-.016.031-.031.047-.504.866-1.063 1.676-1.692 2.448-.205.252-.425.504-.637.748-.36.4-.737.784-1.13 1.151-2.747 2.574-6.258 4.347-10.156 4.94-.952.15-1.92.22-2.912.22s-1.96-.071-2.912-.22c-4.454-.677-8.405-2.896-11.285-6.091-.213-.244-.433-.496-.637-.748-.63-.771-1.196-1.59-1.692-2.448-.016-.016-.024-.024-.032-.047-.15-.275-.299-.551-.449-.826-.157-.299-.299-.598-.433-.905-.134-.291-.26-.59-.378-.897-.008-.008-.008-.008-.008-.024-.236-.614-.7-1.015-1.228-1.196-.866-.315-1.928-.024-2.448.937-2.369 4.431-6.319 10.286-11.199 11.687-3.589 1.023-7.185 1.015-10.42.142l-.008 84.956c.008 6.508 5.281 11.781 11.781 11.781h12.293 38.106 12.293c6.504 0 11.777-5.273 11.785-11.781z" fill="url(#SVGID_9_)"/><path d="m388.704 221.129v-109.502c-.527.181-.992.582-1.228 1.196.008.008 0 .016 0 .016-.244.622-2.361 4.376-2.991 5.131-.205.268-.417.512-.637.748-2.88 3.195-6.831 5.414-11.285 6.091-.952.15-1.92.22-2.912.22s-1.96-.071-2.912-.22c-4.454-.677-8.405-2.896-11.285-6.091-.22-.236-.433-.48-.637-.748-.63-.755-1.196-1.574-1.692-2.448-.016-.016-.024-.024-.032-.047-.157-.268-1.141-2.322-1.259-2.629-.008-.008-.008-.008-.008-.024-.236-.614-.7-1.015-1.228-1.196v109.503z" fill="url(#SVGID_10_)"/><path d="m369.651 62.64c-4.531 0-8.88-.714-12.94-2.012l8.282-17.497c1.861-3.932 7.455-3.932 9.316 0l8.282 17.497c-4.06 1.298-8.409 2.012-12.94 2.012z" fill="url(#SVGID_11_)"/></g></g><g><g><path d="m52.842 347.72v-33.347c0-20.744 16.816-37.561 37.561-37.561 20.744 0 37.561 16.816 37.561 37.561v33.347c0 20.744-16.816 37.561-37.561 37.561-20.744 0-37.561-16.817-37.561-37.561z" fill="url(#SVGID_12_)"/><path d="m386.523 347.72v-33.347c0-20.744 16.816-37.561 37.561-37.561 20.744 0 37.561 16.816 37.561 37.561v33.347c0 20.744-16.816 37.561-37.561 37.561-20.744 0-37.561-16.817-37.561-37.561z" fill="url(#SVGID_13_)"/></g><path d="m431.456 267.853v67.944c0 14.772-1.841 29.119-5.294 42.823-19.086 75.506-87.477 131.38-168.919 131.38s-149.832-55.874-168.907-131.379c-3.464-13.704-5.305-28.051-5.305-42.823v-67.944c0-25.829 5.621-50.34 15.709-72.378h317.009c10.086 22.037 15.707 46.548 15.707 72.377z" fill="url(#SVGID_14_)"/><path d="m431.456 267.853v67.944c0 14.772-1.841 29.119-5.316 42.823-15.415 61.016-63.053 109.221-123.742 125.464l-125.463-125.463-93.905-93.904v-16.864c0-25.829 5.621-50.34 15.709-72.378h317.009c10.087 22.038 15.708 46.549 15.708 72.378z" fill="url(#SVGID_15_)"/><g><path d="m444.729 195.475c10.712 0 18.372 10.521 14.906 20.657-16.338 47.78-61.627 82.137-114.925 82.137h-106.302c-22.714 0-43.956-6.242-62.138-17.092-6.732 5.349-14.347 9.619-22.605 12.561-8.364 2.968-17.377 4.573-26.766 4.531-43.604-.195-78.544-36.316-78.544-79.92v-7.17c0-8.672 7.03-15.703 15.703-15.703h380.671z" fill="url(#SVGID_16_)"/><path d="m176.27 281.176c-6.732 5.349-14.347 9.619-22.605 12.561-8.364 2.968-17.377 4.573-26.766 4.531-43.604-.195-78.544-36.316-78.544-79.92v-7.17c0-8.672 7.03-15.703 15.703-15.703h54.344c5.622 36.44 27.442 67.541 57.868 85.701z" fill="url(#SVGID_17_)"/></g><g><g><g><path d="m205.278 365.795c0 13.861-11.237 25.098-25.098 25.098s-25.098-11.237-25.098-25.098 11.237-25.098 25.098-25.098 25.098 11.236 25.098 25.098z" fill="url(#SVGID_18_)"/><path d="m191.407 343.344c1.693 3.378 2.647 7.191 2.647 11.227 0 13.861-11.237 25.098-25.098 25.098-4.036 0-7.849-.954-11.227-2.647 4.12 8.224 12.626 13.871 22.451 13.871 13.861 0 25.098-11.237 25.098-25.098 0-9.826-5.647-18.331-13.871-22.451z" fill="url(#SVGID_19_)"/></g></g><g><g><path d="m359.404 365.795c0 13.861-11.237 25.098-25.098 25.098s-25.098-11.237-25.098-25.098 11.237-25.098 25.098-25.098c13.862 0 25.098 11.236 25.098 25.098z" fill="url(#SVGID_20_)"/><path d="m345.533 343.344c1.693 3.378 2.647 7.191 2.647 11.227 0 13.861-11.237 25.098-25.098 25.098-4.036 0-7.849-.954-11.227-2.647 4.121 8.224 12.626 13.871 22.451 13.871 13.861 0 25.098-11.237 25.098-25.098 0-9.826-5.646-18.331-13.871-22.451z" fill="url(#SVGID_21_)"/></g></g></g><path d="m291.808 439.267c-21.908-10.227-47.221-10.227-69.129 0-5.667 2.645-8.201 9.34-5.651 15.05 5.836 13.069 18.471 33.619 40.216 33.619s34.379-20.55 40.216-33.619c2.549-5.71.015-12.405-5.652-15.05z" fill="url(#SVGID_22_)"/><ellipse cx="257.243" cy="398.012" fill="url(#SVGID_23_)" rx="22.514" ry="19.386"/></g><g><g><g><path d="m169.868 60.756c0-33.594-27.265-60.82-60.874-60.756-33.525.063-60.833 27.593-60.637 61.118.113 19.327 9.25 36.516 23.411 47.566 3.694 2.882 5.857 7.302 5.857 11.988 0 10.098 8.186 18.285 18.285 18.285h26.405c10.098 0 18.285-8.186 18.285-18.285v-.001c0-4.681 2.158-9.101 5.849-11.98 14.253-11.119 23.419-28.456 23.419-47.935z" fill="url(#SVGID_24_)"/><path d="m58.428 94.264c3.642 5.498 8.152 10.372 13.339 14.42 3.694 2.882 5.857 7.302 5.857 11.988 0 10.098 8.186 18.285 18.285 18.285h26.405c10.098 0 18.285-8.186 18.285-18.285v-.001c0-4.681 2.158-9.101 5.849-11.98 5.191-4.049 9.702-8.925 13.347-14.427z" fill="url(#SVGID_25_)"/><circle cx="109.112" cy="61.594" fill="url(#SVGID_26_)" r="55.778"/></g></g><g><path d="m109.112 170.256c-17.39 0-31.487-14.097-31.487-31.487v-8.113h62.974v8.113c0 17.39-14.097 31.487-31.487 31.487z" fill="url(#SVGID_27_)"/><path d="m75.357 127.698v6.987c0 1.599 1.656 2.96 3.92 3.236 8.788 1.069 18.973 1.68 29.835 1.68 10.861 0 21.047-.611 29.835-1.68 2.264-.275 3.92-1.637 3.92-3.236v-6.987c0-2.022-2.603-3.565-5.473-3.239-8.426.956-18.053 1.499-28.282 1.499s-19.856-.543-28.282-1.499c-2.87-.326-5.473 1.216-5.473 3.239z" fill="url(#SVGID_28_)"/><path d="m75.357 144.685v6.987c0 1.599 1.656 2.96 3.92 3.236 8.788 1.069 18.973 1.68 29.835 1.68 10.861 0 21.047-.611 29.835-1.68 2.264-.275 3.92-1.637 3.92-3.236v-6.987c0-2.022-2.603-3.565-5.473-3.239-8.426.956-18.053 1.499-28.282 1.499s-19.856-.543-28.282-1.499c-2.87-.326-5.473 1.217-5.473 3.239z" fill="url(#SVGID_29_)"/></g></g></g></svg>