<svg id="Capa_1" enable-background="new 0 0 510 510" height="512" viewBox="0 0 510 510" width="512" xmlns="http://www.w3.org/2000/svg" xmlns:xlink="http://www.w3.org/1999/xlink"><linearGradient id="lg1"><stop offset="0" stop-color="#7acbff"/><stop offset="1" stop-color="#45a2e0"/></linearGradient><linearGradient id="SVGID_1_" gradientUnits="userSpaceOnUse" x1="92.71" x2="226.224" xlink:href="#lg1" y1="92.718" y2="226.232"/><linearGradient id="SVGID_2_" gradientUnits="userSpaceOnUse" x1="144.368" x2="144.368" y1="211.001" y2="289.225"><stop offset="0" stop-color="#2f73a0" stop-opacity="0"/><stop offset="1" stop-color="#2f73a0"/></linearGradient><linearGradient id="lg2"><stop offset="0" stop-color="#ffce47"/><stop offset="1" stop-color="#ff9356"/></linearGradient><linearGradient id="SVGID_3_" gradientUnits="userSpaceOnUse" x1="92.71" x2="226.224" xlink:href="#lg2" y1="315.761" y2="449.276"/><linearGradient id="SVGID_4_" gradientUnits="userSpaceOnUse" x1="273.647" x2="423.089" y1="273.639" y2="423.081"><stop offset="0" stop-color="#ff755c"/><stop offset="1" stop-color="#ff4181"/></linearGradient><linearGradient id="lg3"><stop offset="0" stop-color="#ff9356" stop-opacity="0"/><stop offset="1" stop-color="#ff755c"/></linearGradient><linearGradient id="SVGID_5_" gradientUnits="userSpaceOnUse" x1="357.999" x2="277.77" xlink:href="#lg3" y1="427.993" y2="347.764"/><linearGradient id="lg4"><stop offset="0" stop-color="#843561" stop-opacity="0"/><stop offset="1" stop-color="#3a2f4d"/></linearGradient><linearGradient id="SVGID_6_" gradientUnits="userSpaceOnUse" x1="375.52" x2="248.049" xlink:href="#lg4" y1="375.472" y2="248.001"/><linearGradient id="SVGID_7_" gradientUnits="userSpaceOnUse" x1="216.58" x2="301.802" y1="216.58" y2="301.802"><stop offset="0" stop-color="#e4e08e"/><stop offset="1" stop-color="#6fa953"/></linearGradient><linearGradient id="SVGID_8_" gradientUnits="userSpaceOnUse" x1="144.368" x2="144.368" xlink:href="#lg3" y1="435.983" y2="497.478"/><linearGradient id="SVGID_9_" gradientUnits="userSpaceOnUse" x1="365.632" x2="365.632" xlink:href="#lg4" y1="458.481" y2="535.209"/><linearGradient id="SVGID_10_" gradientTransform="matrix(.707 .707 -.707 .707 -2289.349 453.906)" gradientUnits="userSpaceOnUse" x1="1661.829" x2="1643.069" y1="-2186.68" y2="-2186.68"><stop offset="0" stop-color="#6fa953"/><stop offset="1" stop-color="#43765a"/></linearGradient><linearGradient id="SVGID_11_" gradientUnits="userSpaceOnUse" x1="324.787" x2="306.027" xlink:href="#lg2" y1="59.277" y2="59.277"/><linearGradient id="SVGID_12_" gradientTransform="matrix(0 1 -1 0 -2883.958 -427.608)" gradientUnits="userSpaceOnUse" x1="619.522" x2="600.762" xlink:href="#lg1" y1="-3334.682" y2="-3334.682"/><g><g><path d="m235.338 144.227c-16.361 17.416-16.361 44.968 0 62.383 10.676 11.369 25.693 16.007 39.92 13.913 6.175-.91 11.683 3.977 11.683 10.217v33.349c0 12.625-10.233 22.858-22.858 22.858h-33.349c-6.24 0-11.127-5.507-10.217-11.683 2.093-14.227-2.544-29.243-13.913-39.92-17.415-16.361-44.968-16.361-62.383 0-11.369 10.676-16.006 25.692-13.913 39.92.91 6.175-3.977 11.683-10.217 11.683h-33.352c-12.625 0-22.858-10.233-22.858-22.858v-33.349c0-6.24-5.515-11.127-11.691-10.217-14.219 2.093-29.243-2.544-39.919-13.913-16.361-17.416-16.361-44.968 0-62.383 10.676-11.369 25.701-16.007 39.919-13.913 6.176.91 11.691-3.977 11.691-10.217v-33.35c0-12.625 10.233-22.858 22.858-22.858h33.349c6.24 0 11.127-5.515 10.217-11.691-2.093-14.219 2.544-29.243 13.913-39.92 17.415-16.361 44.968-16.361 62.383 0 11.369 10.677 16.006 25.701 13.913 39.92-.91 6.175 3.977 11.691 10.217 11.691h33.349c12.625 0 22.858 10.233 22.858 22.858v33.349c0 6.24-5.507 11.127-11.683 10.217-14.224-2.092-29.241 2.545-39.917 13.914z" fill="url(#SVGID_1_)"/><path d="m12.27 206.61c10.676 11.369 25.7 16.006 39.92 13.913 6.176-.91 11.691 3.977 11.691 10.217v33.349c0 12.625 10.233 22.858 22.858 22.858h33.349c6.24 0 11.127-5.507 10.217-11.683-2.093-14.227 2.544-29.243 13.913-39.92 17.415-16.361 44.968-16.361 62.383 0 11.369 10.676 16.006 25.692 13.913 39.92-.91 6.175 3.977 11.683 10.217 11.683h33.349c12.625 0 22.858-10.233 22.858-22.858v-33.349c0-6.24-5.507-11.127-11.683-10.217-14.227 2.093-29.243-2.544-39.92-13.913-5.055-5.381-8.543-11.73-10.474-18.448h-223.065c1.932 6.718 5.42 13.068 10.474 18.448z" fill="url(#SVGID_2_)"/><path d="m235.338 367.271c-16.361 17.416-16.361 44.968 0 62.383 10.676 11.369 25.693 16.007 39.92 13.913 6.175-.91 11.683 3.977 11.683 10.217v33.349c0 12.625-10.233 22.858-22.858 22.858h-33.349c-6.24 0-11.127-5.507-10.217-11.683 2.093-14.227-2.544-29.243-13.913-39.92-17.415-16.361-44.968-16.361-62.383 0-11.369 10.676-16.006 25.692-13.913 39.92.91 6.175-3.977 11.683-10.217 11.683h-33.352c-12.625 0-22.858-10.233-22.858-22.858v-33.349c0-6.24-5.515-11.127-11.691-10.217-14.219 2.093-29.243-2.544-39.919-13.913-16.361-17.416-16.361-44.968 0-62.383 10.676-11.369 25.701-16.007 39.919-13.913 6.176.91 11.691-3.977 11.691-10.217v-33.349c0-12.625 10.233-22.858 22.858-22.858h33.349c6.24 0 11.127-5.515 10.217-11.691-2.093-14.219 2.544-29.243 13.913-39.92 17.415-16.361 44.968-16.361 62.383 0 11.369 10.677 16.006 25.701 13.913 39.92-.91 6.175 3.977 11.691 10.217 11.691h33.349c12.625 0 22.858 10.233 22.858 22.858v33.349c0 6.24-5.507 11.127-11.683 10.217-14.224-2.094-29.241 2.544-39.917 13.913z" fill="url(#SVGID_3_)"/><path d="m458.398 367.271c-16.361 17.416-16.361 44.968 0 62.383 10.676 11.369 25.693 16.007 39.92 13.913 6.175-.91 11.683 3.977 11.683 10.217v33.349c0 12.625-10.233 22.858-22.858 22.858h-33.349c-6.24 0-11.127-5.507-10.217-11.683 2.093-14.227-2.544-29.243-13.913-39.92-17.415-16.361-44.968-16.361-62.383 0-11.369 10.676-16.006 25.692-13.913 39.92.91 6.175-3.977 11.683-10.217 11.683h-33.349c-12.625 0-22.858-10.233-22.858-22.858v-33.349c0-6.24-5.515-11.127-11.691-10.217-14.219 2.093-29.243-2.544-39.919-13.913-16.361-17.416-16.361-44.968 0-62.383 10.676-11.369 25.701-16.007 39.919-13.913 6.176.91 11.691-3.977 11.691-10.217v-33.349c0-12.625 10.233-22.858 22.858-22.858h33.349c6.24 0 11.127-5.515 10.217-11.691-2.093-14.219 2.544-29.243 13.913-39.92 17.415-16.361 44.968-16.361 62.383 0 11.369 10.677 16.006 25.701 13.913 39.92-.91 6.175 3.977 11.691 10.217 11.691h33.349c12.625 0 22.858 10.233 22.858 22.858v33.349c0 6.24-5.507 11.127-11.683 10.217-14.228-2.094-29.244 2.544-39.92 13.913z" fill="url(#SVGID_4_)"/></g><path d="m275.258 353.357c6.175.91 11.683-3.977 11.683-10.217v-33.349c0-12.625-10.233-22.858-22.858-22.858h-33.349c-6.24 0-11.127-5.515-10.217-11.691 2.093-14.219-2.544-29.243-13.913-39.92-8.654-8.129-19.81-12.215-30.983-12.266-3.612 9.771-5.579 20.559-5.579 32.114 0 26.657 7.216 50.581 25.69 66.996l42.398 42.399c10.413-9.377 24.096-13.125 37.128-11.208z" fill="url(#SVGID_5_)"/><path d="m453.792 509.992h33.349c12.625 0 22.858-10.234 22.858-22.858v-33.349c0-6.24-5.507-11.127-11.683-10.217-14.227 2.093-29.243-2.544-39.92-13.913-16.361-17.415-16.361-44.968 0-62.383 6.289-6.697 14.088-11.039 22.34-13.065l-116.129-116.132c-9.402 10.42-13.161 24.127-11.241 37.167.91 6.175-3.977 11.691-10.217 11.691h-33.349c-12.625 0-22.858 10.233-22.858 22.858v33.349c0 6.24-5.515 11.127-11.691 10.217-13.022-1.917-26.71 1.829-37.124 11.204l116.103 116.104c2.032-8.229 6.369-16.003 13.049-22.276 17.415-16.361 44.968-16.361 62.383 0 11.369 10.676 16.007 25.693 13.913 39.92-.91 6.176 3.977 11.683 10.217 11.683z" fill="url(#SVGID_6_)"/><g><g><circle cx="255" cy="255" fill="url(#SVGID_7_)" r="89.613"/><path d="m240.38 297.572c-7.775 0-15.085-3.028-20.582-8.525l-24.752-24.752c-5.176-5.175-5.176-13.567 0-18.743 5.175-5.176 13.567-5.176 18.743 0l24.752 24.752c.63.63 1.348.762 1.839.762s1.209-.132 1.839-.762l53.994-53.993c5.176-5.176 13.567-5.176 18.743 0 5.175 5.175 5.175 13.567 0 18.743l-53.993 53.993c-5.499 5.497-12.808 8.525-20.583 8.525z" fill="#fff"/></g></g><path d="m12.27 429.654c10.676 11.369 25.7 16.006 39.92 13.913 6.176-.91 11.691 3.977 11.691 10.217v33.349c0 12.625 10.233 22.858 22.858 22.858h33.349c6.24 0 11.127-5.507 10.217-11.683-2.093-14.227 2.544-29.243 13.913-39.92 17.415-16.361 44.968-16.361 62.383 0 11.369 10.676 16.006 25.692 13.913 39.92-.91 6.175 3.977 11.683 10.217 11.683h33.349c12.625 0 22.858-10.233 22.858-22.858v-33.349c0-6.24-5.507-11.127-11.683-10.217-14.227 2.093-29.243-2.544-39.92-13.913-5.055-5.381-8.543-11.73-10.474-18.448h-223.065c1.932 6.718 5.42 13.067 10.474 18.448z" fill="url(#SVGID_8_)"/><path d="m233.534 429.654c10.676 11.369 25.7 16.006 39.92 13.913 6.176-.91 11.691 3.977 11.691 10.217v33.349c0 12.625 10.233 22.858 22.858 22.858h33.349c6.24 0 11.127-5.507 10.217-11.683-2.093-14.227 2.544-29.243 13.913-39.92 17.415-16.361 44.968-16.361 62.383 0 11.369 10.676 16.006 25.692 13.913 39.92-.91 6.175 3.977 11.683 10.217 11.683h33.349c12.625 0 22.858-10.233 22.858-22.858v-33.349c0-6.24-5.507-11.127-11.683-10.217-14.227 2.093-29.243-2.544-39.92-13.913-5.055-5.381-8.543-11.73-10.474-18.448h-223.065c1.931 6.718 5.419 13.067 10.474 18.448z" fill="url(#SVGID_9_)"/><g><g><path d="m397.829 112.171c-7.446-7.446-7.446-19.519 0-26.966l36.553-36.553c7.446-7.446 19.519-7.446 26.966 0 7.446 7.446 7.446 19.519 0 26.966l-36.553 36.553c-7.447 7.446-19.52 7.446-26.966 0z" fill="url(#SVGID_10_)"/></g><g><path d="m321.436 104.191c-10.531 0-19.068-8.537-19.068-19.068v-51.694c0-10.531 8.537-19.068 19.068-19.068 10.531 0 19.068 8.537 19.068 19.068v51.693c0 10.532-8.537 19.069-19.068 19.069z" fill="url(#SVGID_11_)"/><path d="m405.809 188.564c0-10.531 8.537-19.068 19.068-19.068h51.693c10.531 0 19.068 8.537 19.068 19.068 0 10.531-8.537 19.068-19.068 19.068h-51.693c-10.531 0-19.068-8.537-19.068-19.068z" fill="url(#SVGID_12_)"/></g></g></g></svg>