<svg id="Capa_1" enable-background="new 0 0 510 510" height="512" viewBox="0 0 510 510" width="512" xmlns="http://www.w3.org/2000/svg" xmlns:xlink="http://www.w3.org/1999/xlink"><linearGradient id="SVGID_1_" gradientUnits="userSpaceOnUse" x1="70.035" x2="70.035" y1="98.836" y2="191.315"><stop offset="0" stop-color="#ffce47"/><stop offset="1" stop-color="#ff9356"/></linearGradient><linearGradient id="lg1"><stop offset="0" stop-color="#ff755c"/><stop offset="1" stop-color="#ff4181"/></linearGradient><linearGradient id="SVGID_2_" gradientUnits="userSpaceOnUse" x1="439.965" x2="439.965" xlink:href="#lg1" y1="80.348" y2="135.099"/><linearGradient id="SVGID_3_" gradientUnits="userSpaceOnUse" x1="143.819" x2="143.819" y1="87.459" y2="211.925"><stop offset="0" stop-color="#e4e08e"/><stop offset="1" stop-color="#6fa953"/></linearGradient><linearGradient id="SVGID_4_" gradientUnits="userSpaceOnUse" x1="366.181" x2="366.181" y1="118.745" y2="232.303"><stop offset="0" stop-color="#ff4181"/><stop offset="1" stop-color="#843561"/></linearGradient><linearGradient id="SVGID_5_" gradientUnits="userSpaceOnUse" x1="255" x2="255" y1="64.705" y2="189.139"><stop offset="0" stop-color="#7acbff"/><stop offset="1" stop-color="#45a2e0"/></linearGradient><linearGradient id="SVGID_6_" gradientUnits="userSpaceOnUse" x1="107.397" x2="107.397" y1="179.184" y2="225.629"><stop offset="0" stop-color="#ff9356" stop-opacity="0"/><stop offset="1" stop-color="#ff755c"/></linearGradient><linearGradient id="SVGID_7_" gradientUnits="userSpaceOnUse" x1="178.439" x2="178.439" y1="173.318" y2="266.656"><stop offset="0" stop-color="#43765a" stop-opacity="0"/><stop offset="1" stop-color="#43765a"/></linearGradient><linearGradient id="SVGID_8_" gradientUnits="userSpaceOnUse" x1="255" x2="255" y1="177.051" y2="310.454"><stop offset="0" stop-color="#174461" stop-opacity="0"/><stop offset="1" stop-color="#174461"/></linearGradient><linearGradient id="lg2"><stop offset="0" stop-color="#843561" stop-opacity="0"/><stop offset="1" stop-color="#3a2f4d"/></linearGradient><linearGradient id="SVGID_9_" gradientUnits="userSpaceOnUse" x1="331.561" x2="331.561" xlink:href="#lg2" y1="198.947" y2="244.782"/><linearGradient id="SVGID_10_" gradientUnits="userSpaceOnUse" x1="402.603" x2="402.603" xlink:href="#lg2" y1="174.384" y2="253.356"/><linearGradient id="lg3"><stop offset="0" stop-color="#ffdecf"/><stop offset="1" stop-color="#faa68e"/></linearGradient><linearGradient id="SVGID_11_" gradientUnits="userSpaceOnUse" x1="79.241" x2="120.642" xlink:href="#lg3" y1="306.014" y2="398.863"/><linearGradient id="SVGID_12_" gradientUnits="userSpaceOnUse" x1="412.922" x2="454.323" xlink:href="#lg3" y1="306.014" y2="398.863"/><linearGradient id="SVGID_13_" gradientUnits="userSpaceOnUse" x1="246.787" x2="417.139" xlink:href="#lg3" y1="302.614" y2="472.965"/><linearGradient id="lg4"><stop offset="0" stop-color="#ff9356" stop-opacity="0"/><stop offset="1" stop-color="#ff4181"/></linearGradient><linearGradient id="SVGID_14_" gradientUnits="userSpaceOnUse" x1="264.826" x2="251.323" xlink:href="#lg4" y1="356.462" y2="207.214"/><linearGradient id="lg5"><stop offset="0" stop-color="#5a7587"/><stop offset="1" stop-color="#092a40"/></linearGradient><linearGradient id="SVGID_15_" gradientUnits="userSpaceOnUse" x1="244.064" x2="306.163" xlink:href="#lg5" y1="192.562" y2="360.594"/><linearGradient id="lg6"><stop offset="0" stop-color="#092a40" stop-opacity="0"/><stop offset="1" stop-color="#092a40"/></linearGradient><linearGradient id="SVGID_16_" gradientUnits="userSpaceOnUse" x1="116.187" x2="198.828" xlink:href="#lg6" y1="253.15" y2="322.282"/><linearGradient id="SVGID_17_" gradientUnits="userSpaceOnUse" x1="170.79" x2="203.295" xlink:href="#lg5" y1="356.404" y2="388.91"/><linearGradient id="SVGID_18_" gradientUnits="userSpaceOnUse" x1="181.052" x2="215.55" xlink:href="#lg6" y1="375.413" y2="311.252"/><linearGradient id="SVGID_19_" gradientUnits="userSpaceOnUse" x1="324.916" x2="357.422" xlink:href="#lg5" y1="356.404" y2="388.91"/><linearGradient id="SVGID_20_" gradientUnits="userSpaceOnUse" x1="335.178" x2="369.676" xlink:href="#lg6" y1="375.413" y2="311.252"/><linearGradient id="SVGID_21_" gradientUnits="userSpaceOnUse" x1="250.677" x2="276.442" xlink:href="#lg1" y1="439.006" y2="482.807"/><linearGradient id="SVGID_22_" gradientUnits="userSpaceOnUse" x1="257.243" x2="257.243" xlink:href="#lg4" y1="405.866" y2="344.304"/><g><g><path d="m115.331 85.288-47.845-85.288h-38.655c-23.512 0-37.103 22.904-23.287 39.244l31.173 36.866c29.28 34.628 45.05 76.326 45.05 119.123v28.886l58.303 28.699v-68.928c0-35.424-8.659-69.94-24.739-98.602z" fill="url(#SVGID_1_)"/><path d="m481.169 0h-38.655l-47.845 85.288c-16.079 28.663-24.739 63.178-24.739 98.602v68.928l58.303-28.699v-28.886c0-42.797 15.77-84.495 45.05-119.123l31.173-36.865c13.816-16.341.225-39.245-23.287-39.245z" fill="url(#SVGID_2_)"/><path d="m220.152 183.89c0-35.424-2.626-69.939-7.501-98.602l-14.507-85.288h-130.658l47.845 85.288c16.079 28.663 24.739 63.178 24.739 98.602v68.928l80.082 39.42z" fill="url(#SVGID_3_)"/><path d="m394.669 85.288 47.845-85.288h-130.659l-14.507 85.288c-4.875 28.663-7.501 63.178-7.501 98.602v108.348l80.082-39.42v-68.928c0-35.424 8.66-69.94 24.74-98.602z" fill="url(#SVGID_4_)"/><path d="m289.847 183.89c0-35.424 2.626-69.939 7.501-98.602l14.507-85.288h-113.711l14.507 85.288c4.875 28.663 7.501 63.178 7.501 98.602v108.348l34.848 17.153 34.847-17.153z" fill="url(#SVGID_5_)"/><path d="m81.767 195.232v28.886l58.303 28.699v-68.927c0-12.788-1.145-25.452-3.344-37.771h-62.002c4.644 15.971 7.043 32.458 7.043 49.113z" fill="url(#SVGID_6_)"/><path d="m140.07 183.89v68.928l80.082 39.42v-108.348c0-12.788-.347-25.452-1.014-37.771h-82.412c2.199 12.318 3.344 24.983 3.344 37.771z" fill="url(#SVGID_7_)"/><path d="m219.139 146.119c.667 12.319 1.014 24.983 1.014 37.771v108.348l34.847 17.153 34.847-17.153v-108.348c0-12.788.347-25.452 1.014-37.771z" fill="url(#SVGID_8_)"/><path d="m290.861 146.119c-.667 12.319-1.014 24.983-1.014 37.771v108.348l80.082-39.42v-68.928c0-12.788 1.145-25.452 3.344-37.771z" fill="url(#SVGID_9_)"/><path d="m373.274 146.119c-2.199 12.319-3.344 24.983-3.344 37.771v68.928l58.303-28.699v-28.886c0-16.656 2.399-33.143 7.043-49.114z" fill="url(#SVGID_10_)"/></g><g><g><g><path d="m52.842 347.72v-33.347c0-20.744 16.816-37.561 37.561-37.561 20.744 0 37.561 16.816 37.561 37.561v33.347c0 20.744-16.816 37.561-37.561 37.561-20.744 0-37.561-16.817-37.561-37.561z" fill="url(#SVGID_11_)"/><path d="m386.523 347.72v-33.347c0-20.744 16.816-37.561 37.561-37.561 20.744 0 37.561 16.816 37.561 37.561v33.347c0 20.744-16.816 37.561-37.561 37.561-20.744 0-37.561-16.817-37.561-37.561z" fill="url(#SVGID_12_)"/></g><path d="m431.456 267.853v67.944c0 14.772-1.841 29.119-5.294 42.823-19.086 75.506-87.477 131.38-168.919 131.38s-149.832-55.874-168.907-131.379c-3.464-13.704-5.305-28.051-5.305-42.823v-67.944c0-25.829 5.621-43.34 15.709-65.378h317.009c10.086 22.037 15.707 39.548 15.707 65.377z" fill="url(#SVGID_13_)"/><path d="m431.456 267.853v67.944c0 14.772-1.841 29.119-5.316 42.823-15.415 61.016-63.053 109.221-123.742 125.464l-125.463-125.463-93.905-93.904v-16.864c0-25.829 5.621-43.34 15.709-65.378h317.009c10.087 22.038 15.708 39.549 15.708 65.378z" fill="url(#SVGID_14_)"/><g><path d="m444.728 195.475c10.712 0 18.372 10.521 14.906 20.657-16.338 47.78-61.627 82.137-114.925 82.137h-106.301c-22.714 0-43.956-6.242-62.138-17.092-6.732 5.349-14.347 9.619-22.605 12.561-8.364 2.968-17.377 4.573-26.766 4.531-43.604-.195-78.544-36.316-78.544-79.92v-7.17c0-8.672 7.03-15.703 15.703-15.703h380.67z" fill="url(#SVGID_15_)"/><path d="m176.27 281.176c-6.732 5.349-14.347 9.619-22.605 12.561-8.364 2.968-17.377 4.573-26.766 4.531-43.604-.195-78.544-36.316-78.544-79.92v-7.17c0-8.672 7.03-15.703 15.703-15.703h54.344c5.622 36.44 27.442 67.541 57.868 85.701z" fill="url(#SVGID_16_)"/></g><g><g><g><path d="m205.278 365.795c0 13.861-11.237 25.098-25.098 25.098s-25.098-11.237-25.098-25.098 11.237-25.098 25.098-25.098 25.098 11.236 25.098 25.098z" fill="url(#SVGID_17_)"/><path d="m191.407 343.344c1.693 3.378 2.647 7.191 2.647 11.227 0 13.861-11.237 25.098-25.098 25.098-4.036 0-7.849-.954-11.227-2.647 4.12 8.224 12.626 13.871 22.451 13.871 13.861 0 25.098-11.237 25.098-25.098 0-9.826-5.647-18.331-13.871-22.451z" fill="url(#SVGID_18_)"/></g></g><g><g><path d="m359.404 365.795c0 13.861-11.237 25.098-25.098 25.098s-25.098-11.237-25.098-25.098 11.237-25.098 25.098-25.098c13.862 0 25.098 11.236 25.098 25.098z" fill="url(#SVGID_19_)"/><path d="m345.533 343.344c1.693 3.378 2.647 7.191 2.647 11.227 0 13.861-11.237 25.098-25.098 25.098-4.036 0-7.849-.954-11.227-2.647 4.121 8.224 12.626 13.871 22.451 13.871 13.861 0 25.098-11.237 25.098-25.098 0-9.826-5.646-18.331-13.871-22.451z" fill="url(#SVGID_20_)"/></g></g></g><path d="m291.808 439.267c-21.908-10.227-47.221-10.227-69.129 0-5.667 2.645-8.201 9.34-5.651 15.05 5.836 13.069 18.471 33.619 40.216 33.619s34.379-20.55 40.216-33.619c2.549-5.71.015-12.405-5.652-15.05z" fill="url(#SVGID_21_)"/><ellipse cx="257.243" cy="398.012" fill="url(#SVGID_22_)" rx="22.514" ry="19.386"/></g></g></g></svg>