<svg width="107" height="107" viewBox="0 0 107 107" fill="none" xmlns="http://www.w3.org/2000/svg">
<g clip-path="url(#clip0)">
<path d="M38.96 96.7132C38.7069 96.7132 38.4514 96.6463 38.2195 96.5075C37.5363 96.0977 37.315 95.212 37.7248 94.5295C40.7037 89.5645 40.9094 84.9048 40.911 84.8583C40.9404 84.0623 41.6074 83.4403 42.4058 83.4713C43.2009 83.5007 43.8221 84.1701 43.7927 84.9652C43.7846 85.1856 43.5527 90.4192 40.1975 96.0128C39.9265 96.4634 39.449 96.7132 38.96 96.7132Z" fill="#8EE388"/>
<path d="M62.3043 68.3044C62.301 68.1069 62.0683 68.0048 61.9198 68.1338C61.1442 68.8081 59.0585 70.1363 54.869 69.8702C50.8444 69.6155 46.3684 72.0857 45.1586 77.2459C45.0859 77.5577 45.4762 77.7667 45.6917 77.5283C48.1285 74.8336 51.2118 73.7348 53.3833 73.289C53.6404 73.2352 53.7457 73.6066 53.4984 73.6964C50.9644 74.6205 46.4672 77.0148 43.7831 81.5105C43.4598 82.0533 43.1618 82.6264 42.8973 83.2313C42.321 81.9096 41.6475 80.7349 40.9112 79.6925C37.9397 75.4809 33.9543 73.4164 31.293 72.4474C31.0187 72.347 31.1363 71.9339 31.422 71.9927C33.8392 72.4906 37.2711 73.7127 39.983 76.7128C40.223 76.9773 40.6589 76.7454 40.5765 76.3977C39.2295 70.6547 34.2482 67.9052 29.7697 68.1885C25.1051 68.4848 22.7834 67.0056 21.9214 66.2562C21.7556 66.1117 21.4969 66.2252 21.492 66.4448C21.1654 81.6003 33.0155 83.6909 38.1666 81.9799C38.454 81.8835 38.7944 81.9431 39.1356 82.0786C40.2205 82.5097 40.9112 83.5872 40.9112 84.7554V85.0828C40.9112 85.855 41.503 86.5196 42.2736 86.5579C43.0018 86.5938 43.619 86.0869 43.7553 85.4069C43.8075 85.1424 43.8745 84.8795 43.9871 84.6338C44.9251 82.5807 46.5015 81.9864 47.3235 82.2599C51.9522 83.7979 62.5981 81.9203 62.3043 68.3044V68.3044Z" fill="url(#paint0_linear)"/>
<path d="M62.3042 68.3044C62.3009 68.1436 62.1458 68.0481 62.0087 68.0881C61.3989 69.3975 59.4217 72.2882 53.4991 73.6964C50.9644 74.6205 46.4671 77.014 43.783 81.5104C43.4597 82.0525 43.1617 82.6264 42.8981 83.2313C42.8956 83.2264 42.8932 83.2223 42.8915 83.2174C42.5176 84.3578 42.3111 85.4917 42.2629 86.5562C42.2662 86.5571 42.2703 86.5579 42.2744 86.5579C43.0025 86.5938 43.6197 86.0868 43.7552 85.4068C43.8083 85.1423 43.8752 84.8795 43.9879 84.6337C44.9259 82.5806 46.5022 81.9863 47.3243 82.2598C51.9521 83.7978 62.5981 81.9202 62.3042 68.3044V68.3044Z" fill="url(#paint1_linear)"/>
<path d="M42.4426 82.2582C41.9773 81.3251 41.4614 80.472 40.9112 79.6924C37.9397 75.4809 33.9543 73.4164 31.293 72.4474C24.8488 71.0245 22.4169 67.5044 21.7165 66.1942C21.5989 66.2105 21.4952 66.3068 21.492 66.4448C21.1654 81.6002 33.0155 83.6909 38.1666 81.9798C38.454 81.8835 38.7944 81.9431 39.1356 82.0786C40.2205 82.5096 40.9112 83.5872 40.9112 84.7554V85.0828C40.9112 85.855 41.503 86.5195 42.2736 86.5579C42.3308 86.5603 42.3871 86.5587 42.4426 86.5554V82.2582Z" fill="url(#paint2_linear)"/>
<path d="M40.502 87.5555C40.0971 89.3727 39.2971 91.9082 37.7248 94.5295C37.315 95.212 37.5363 96.0977 38.2195 96.5075C38.4514 96.6463 38.7069 96.7132 38.96 96.7132C39.449 96.7132 39.9273 96.4634 40.1976 96.0128C41.8694 93.225 42.7658 90.5278 43.245 88.4943L40.502 87.5555Z" fill="url(#paint3_linear)"/>
<path d="M43.987 84.6346C44.0205 84.5619 44.054 84.4917 44.0891 84.4232L42.8972 83.2313C42.8972 83.2313 43.6776 84.8223 43.6066 86.4599L43.6368 86.4542C43.7062 85.9832 43.7454 85.6085 43.7666 85.353C43.8181 85.1064 43.8825 84.8632 43.987 84.6346V84.6346Z" fill="url(#paint4_linear)"/>
<path d="M41.6327 68.2783C41.6327 68.5771 41.391 68.8187 41.0923 68.8187C40.7935 68.8187 40.551 68.5771 40.551 68.2783C40.551 67.9795 40.7935 67.7371 41.0923 67.7371C41.391 67.7371 41.6327 67.9795 41.6327 68.2783Z" fill="url(#paint5_linear)"/>
<path d="M44.028 73.3756C44.028 73.8482 43.6443 74.2319 43.1708 74.2319C42.6981 74.2319 42.3145 73.8482 42.3145 73.3756C42.3145 72.9021 42.6981 72.5184 43.1708 72.5184C43.6443 72.5184 44.028 72.9021 44.028 73.3756Z" fill="url(#paint6_linear)"/>
<path d="M45.3723 70.2522C45.3723 70.9804 44.7821 71.5706 44.0547 71.5706C43.3265 71.5706 42.7363 70.9804 42.7363 70.2522C42.7363 69.5248 43.3265 68.9346 44.0547 68.9346C44.7821 68.9346 45.3723 69.5248 45.3723 70.2522Z" fill="url(#paint7_linear)"/>
<path d="M23.3817 88.3302C25.1589 91.6209 24.8209 95.2487 22.6274 96.4332C20.4339 97.6186 17.2142 95.9116 15.4371 92.6209C13.6599 89.3302 13.9978 85.7024 16.1914 84.517C18.3849 83.3325 21.6037 85.0395 23.3817 88.3302V88.3302Z" fill="url(#paint8_linear)"/>
<path d="M16.3359 84.446L22.7663 96.3516C24.8341 95.0903 25.1206 91.549 23.3818 88.3302C21.643 85.1105 18.5246 83.4084 16.3359 84.446Z" fill="url(#paint9_linear)"/>
<path d="M13.281 94.9744C12.4786 98.0537 10.1642 100.117 8.11113 99.5819C6.05802 99.0472 5.04412 96.1173 5.84577 93.0381C6.64824 89.958 8.96257 87.8951 11.0157 88.4306C13.0696 88.9645 14.0827 91.8952 13.281 94.9744Z" fill="url(#paint10_linear)"/>
<path d="M11.1473 88.4698L8.24438 99.6121C10.264 100.026 12.4959 97.9876 13.2812 94.9744C14.0657 91.9613 13.1114 89.0935 11.1473 88.4698V88.4698Z" fill="url(#paint11_linear)"/>
<path d="M8.02544 93.8046C9.04506 93.8046 10.0239 93.985 10.93 94.314C11.7667 94.6185 12.7023 94.3973 13.3162 93.7532C14.4852 92.527 16.1334 91.7629 17.962 91.7629C18.5391 91.7629 19.1 91.8397 19.633 91.9825C20.4233 92.1948 21.2641 91.9474 21.8282 91.3548C24.0854 88.9857 27.2691 87.5098 30.7998 87.5098C35.017 87.5098 38.742 89.6176 40.9796 92.8381C41.4221 93.474 42.1535 93.8324 42.9282 93.8087C43.0139 93.8062 43.1005 93.8054 43.187 93.8054C46.8173 93.8054 49.9161 96.0798 51.1358 99.2806C51.4223 100.032 50.868 100.838 50.0639 100.838H1.14856C0.344462 100.838 -0.209836 100.032 0.0767009 99.2806C1.29632 96.0789 4.39434 93.8046 8.02544 93.8046Z" fill="url(#paint12_linear)"/>
<path d="M43.1871 93.8046C43.3202 93.8046 43.4524 93.8087 43.5839 93.8152C43.6239 93.8168 43.6639 93.8193 43.7031 93.8217C43.7978 93.8275 43.8916 93.8348 43.9847 93.8438C44.0263 93.847 44.0688 93.8511 44.1112 93.856C44.2141 93.8666 44.3161 93.8797 44.4174 93.8952C44.4443 93.8985 44.4721 93.9017 44.499 93.9058C44.6255 93.9254 44.7521 93.9483 44.877 93.9736C44.9088 93.9801 44.9415 93.9875 44.9733 93.9948C45.0672 94.0144 45.1611 94.0356 45.2541 94.0593C45.2949 94.0699 45.3357 94.0797 45.3766 94.0911C45.4655 94.1148 45.5545 94.1401 45.6427 94.1662C45.6778 94.1768 45.7129 94.1866 45.7472 94.1981C45.8672 94.2356 45.9864 94.2756 46.1039 94.3181C46.1203 94.3246 46.1366 94.3311 46.1529 94.3377C46.2541 94.3752 46.3545 94.4144 46.455 94.456C46.4917 94.4716 46.5284 94.4879 46.5652 94.5042C46.6468 94.5393 46.7268 94.5752 46.8068 94.6136C46.8435 94.6307 46.8803 94.6471 46.9162 94.665C47.0109 94.7116 47.1048 94.7597 47.1978 94.8095C47.215 94.8185 47.2321 94.8267 47.2493 94.8356C47.357 94.8952 47.464 94.9565 47.5693 95.0201C47.6003 95.0389 47.6313 95.0593 47.6631 95.0781C47.7382 95.1254 47.8125 95.1728 47.8868 95.2218C47.9219 95.2454 47.957 95.2691 47.9921 95.2928C48.0664 95.3434 48.1399 95.3957 48.2117 95.4495C48.2403 95.4699 48.2689 95.4895 48.2966 95.5108C48.3938 95.5834 48.4885 95.6585 48.5823 95.7353C48.606 95.7548 48.6281 95.7744 48.6509 95.794C48.7228 95.8536 48.7938 95.9148 48.8632 95.9777C48.8958 96.0071 48.9277 96.0365 48.9595 96.0659C49.0207 96.1222 49.0811 96.1802 49.1407 96.2389C49.1709 96.2683 49.2011 96.2969 49.2305 96.3271C49.3081 96.4055 49.384 96.4847 49.4583 96.5655C49.473 96.5818 49.4877 96.5973 49.5016 96.6136C49.5767 96.6961 49.6493 96.781 49.7211 96.8667C49.7489 96.9002 49.7758 96.9345 49.8036 96.9679C49.8542 97.0308 49.904 97.0945 49.9538 97.159C49.9816 97.1957 50.0101 97.2332 50.0379 97.2708C50.0893 97.341 50.1391 97.4112 50.1881 97.4822C50.2093 97.5133 50.2314 97.5435 50.2518 97.5745C50.3179 97.6724 50.3816 97.772 50.4436 97.8733C50.4657 97.9092 50.4861 97.9459 50.5081 97.9818C50.5497 98.052 50.5906 98.1231 50.6297 98.1941C50.6542 98.2382 50.6779 98.2814 50.7008 98.3255C50.7375 98.3941 50.7726 98.4643 50.8077 98.5345C50.8289 98.5761 50.8502 98.6186 50.8697 98.661C50.9212 98.7672 50.9702 98.8749 51.0159 98.9835C51.0306 99.017 51.0428 99.0504 51.0559 99.0831C51.0861 99.1557 51.1146 99.2284 51.1424 99.301C51.4102 100.046 50.8599 100.837 50.0632 100.837H34.8123C35.5094 96.8422 38.9919 93.8046 43.1871 93.8046V93.8046Z" fill="url(#paint13_linear)"/>
<path d="M18.4111 99.897C18.4111 96.59 19.7067 93.5858 21.8186 91.3637C21.8218 91.3605 21.8251 91.358 21.8283 91.3539C22.3924 90.7621 23.0145 90.2266 23.6847 89.7547C23.6863 89.7539 23.6872 89.7531 23.6888 89.7523C23.7696 89.6951 23.8521 89.6388 23.9345 89.5833C23.9402 89.58 23.9468 89.5759 23.9525 89.5718C24.0308 89.5196 24.11 89.469 24.19 89.4184C24.199 89.4127 24.208 89.4069 24.217 89.4012C24.2937 89.3531 24.3713 89.3057 24.4488 89.2592C24.4611 89.2518 24.4725 89.2445 24.4847 89.2371C24.5598 89.1931 24.6349 89.149 24.7109 89.1065C24.7264 89.0975 24.7411 89.0894 24.7566 89.0812C24.83 89.0396 24.9035 88.9996 24.9778 88.9596C24.9958 88.9506 25.0129 88.9408 25.0309 88.9318C25.1035 88.8935 25.1762 88.8567 25.2488 88.82C25.2692 88.8102 25.2888 88.8004 25.3084 88.7906C25.3794 88.7547 25.4513 88.7204 25.5239 88.6861C25.5452 88.6763 25.5664 88.6657 25.5884 88.6559C25.6595 88.6233 25.7305 88.5906 25.8023 88.5588C25.8252 88.549 25.8488 88.5384 25.8725 88.5286C25.9427 88.4975 26.0137 88.4681 26.0848 88.4388C26.1093 88.4281 26.1337 88.4184 26.1591 88.4086C26.2293 88.38 26.2995 88.3522 26.3705 88.3253C26.3966 88.3155 26.4227 88.3049 26.4489 88.2951C26.5191 88.269 26.5893 88.2437 26.6595 88.2183C26.6872 88.2085 26.715 88.1988 26.7419 88.1898C26.8121 88.1653 26.8823 88.1416 26.9525 88.1188C26.9811 88.1098 27.0097 88.1 27.0383 88.091C27.1076 88.069 27.1779 88.0477 27.2481 88.0265C27.2774 88.0175 27.3077 88.0085 27.337 87.9996C27.4072 87.98 27.4775 87.9604 27.5477 87.9408C27.5787 87.9326 27.6089 87.9245 27.6391 87.9163C27.7093 87.8983 27.7803 87.8804 27.8513 87.8632C27.8824 87.8551 27.9126 87.8477 27.9436 87.8404C28.0146 87.8241 28.0864 87.8077 28.1575 87.7922C28.1885 87.7857 28.2195 87.7783 28.2505 87.7718C28.3232 87.7571 28.3958 87.7424 28.4685 87.7285C28.4987 87.7228 28.5297 87.7171 28.5599 87.7114C28.6342 87.6975 28.7077 87.6853 28.782 87.673C28.8122 87.6681 28.8424 87.6632 28.8726 87.6583C28.9485 87.6461 29.0244 87.6355 29.1003 87.6257C29.1289 87.6216 29.1583 87.6167 29.1877 87.6134C29.2661 87.6028 29.3444 87.5938 29.4236 87.5857C29.4506 87.5824 29.4775 87.5791 29.5044 87.5759C29.5877 87.5677 29.6718 87.5604 29.7559 87.553C29.7787 87.5514 29.8016 87.5489 29.8236 87.5473C29.9167 87.54 30.0098 87.5342 30.1036 87.5285C30.1175 87.5277 30.1314 87.5269 30.1453 87.5261C30.3624 87.5147 30.5804 87.5089 30.8 87.5089C30.9224 87.5089 31.0449 87.5114 31.1665 87.5147C31.1983 87.5155 31.2302 87.5171 31.262 87.5179C31.3518 87.522 31.4416 87.5253 31.5306 87.531C31.569 87.5334 31.6065 87.5351 31.6449 87.5383C31.7306 87.544 31.8171 87.5506 31.9029 87.5579C31.9371 87.5612 31.9722 87.5636 32.0073 87.5677C32.1135 87.5775 32.2188 87.5889 32.3241 87.602C32.3363 87.6036 32.3494 87.6045 32.3616 87.6061C32.4808 87.6216 32.6 87.6379 32.7184 87.6567C32.7445 87.6608 32.7706 87.6657 32.7976 87.6698C32.8882 87.6845 32.978 87.7 33.0686 87.7163C33.1045 87.7236 33.1396 87.7302 33.1755 87.7367C33.258 87.753 33.3404 87.7702 33.4229 87.7881C33.4572 87.7955 33.4923 87.8028 33.5266 87.8102C33.6196 87.8314 33.7119 87.8534 33.8041 87.8763C33.8253 87.882 33.8466 87.8861 33.8678 87.8918C33.9829 87.9212 34.098 87.9522 34.2115 87.9849C34.2254 87.989 34.24 87.993 34.2539 87.9971C34.3511 88.0257 34.4482 88.0551 34.5454 88.0861C34.5756 88.0951 34.6058 88.1057 34.6368 88.1155C34.7184 88.1416 34.8001 88.1694 34.8817 88.1979C34.9127 88.2085 34.9446 88.22 34.9756 88.2314C35.0621 88.2624 35.1486 88.2943 35.2344 88.3269C35.2564 88.3359 35.2793 88.3441 35.3013 88.3522C35.5201 88.4379 35.7356 88.5294 35.9478 88.6265C35.9707 88.6363 35.9927 88.6477 36.0156 88.6584C36.0989 88.6967 36.1813 88.7367 36.2638 88.7767C36.2899 88.7898 36.316 88.8028 36.3421 88.8159C36.4254 88.8575 36.507 88.9 36.5887 88.9433C36.6099 88.9539 36.6303 88.9653 36.6515 88.9759C36.8581 89.0869 37.0621 89.2045 37.2622 89.3269C37.2752 89.3343 37.2875 89.3425 37.3005 89.3506C37.3862 89.4037 37.4703 89.4576 37.5544 89.5123C37.5756 89.5253 37.5969 89.5392 37.6181 89.5531C37.6964 89.6053 37.7748 89.6584 37.8532 89.7123C37.8711 89.7253 37.8891 89.7376 37.9071 89.7506C38.1005 89.8861 38.2907 90.0274 38.4761 90.1743C38.4769 90.1751 38.4777 90.1751 38.4793 90.1759C38.5675 90.2461 38.6557 90.318 38.743 90.3915C38.7585 90.4045 38.774 90.4176 38.7895 90.4306C38.8638 90.4935 38.9381 90.5572 39.0108 90.6217C39.0263 90.6364 39.0426 90.6502 39.0589 90.6641C39.1389 90.7368 39.2181 90.8094 39.2973 90.8829C39.3022 90.8878 39.3071 90.8927 39.312 90.8976C39.4842 91.06 39.6516 91.2282 39.8149 91.4013C39.8263 91.4135 39.8377 91.4258 39.8491 91.438C39.9169 91.5107 39.9847 91.5841 40.0508 91.6592C40.0647 91.6748 40.0794 91.6911 40.0932 91.7074C40.161 91.7841 40.2279 91.8617 40.2941 91.9401C40.3022 91.9507 40.3112 91.9605 40.3194 91.9711C40.4712 92.1531 40.6181 92.3393 40.7594 92.5295C40.7675 92.5409 40.7749 92.5515 40.783 92.5629C40.8435 92.6446 40.903 92.727 40.961 92.8103C42.3635 94.8185 43.1872 97.261 43.1872 99.897C43.1872 100.213 43.1757 100.526 43.1521 100.837H18.4462C18.4226 100.527 18.4111 100.214 18.4111 99.897V99.897Z" fill="url(#paint14_linear)"/>
<path d="M16.3996 100.837H1.1487C0.351947 100.837 -0.198269 100.046 0.0703085 99.3019C0.0972478 99.2284 0.126636 99.1557 0.156025 99.0831C0.169902 99.0504 0.182148 99.017 0.196025 98.9843C0.242557 98.8749 0.291538 98.7672 0.342151 98.661C0.36256 98.6186 0.383785 98.577 0.404193 98.5345C0.439296 98.4643 0.474399 98.3949 0.511134 98.3255C0.534808 98.2814 0.558482 98.2382 0.582156 98.1949C0.622157 98.1231 0.662974 98.0529 0.704608 97.9827C0.725833 97.9459 0.747058 97.9092 0.769099 97.8733C0.830325 97.772 0.894816 97.6724 0.96094 97.5745C0.981348 97.5435 1.00339 97.5133 1.02461 97.4831C1.0736 97.4112 1.12339 97.341 1.17482 97.2708C1.20258 97.2333 1.23115 97.1965 1.25891 97.159C1.30789 97.0945 1.3585 97.0316 1.40911 96.9688C1.43687 96.9345 1.46381 96.9002 1.49156 96.8667C1.5634 96.781 1.63606 96.6969 1.71116 96.6136C1.72504 96.5981 1.73973 96.5818 1.75443 96.5663C1.82871 96.4855 1.90463 96.4055 1.98137 96.3271C2.01157 96.2977 2.04178 96.2683 2.07117 96.2389C2.13076 96.1802 2.19117 96.123 2.25321 96.0659C2.28505 96.0365 2.31689 96.0071 2.34954 95.9777C2.41893 95.9149 2.48995 95.8544 2.56179 95.794C2.58465 95.7744 2.60669 95.7549 2.63036 95.7361C2.72343 95.6585 2.81894 95.5842 2.91608 95.5108C2.94384 95.4904 2.97241 95.4699 3.00017 95.4495C3.07282 95.3965 3.14629 95.3442 3.22058 95.2928C3.25568 95.2691 3.29079 95.2455 3.32589 95.2218C3.39936 95.1728 3.47446 95.1255 3.54957 95.0789C3.58059 95.0593 3.61161 95.0389 3.64345 95.0201C3.74875 94.9565 3.8557 94.8952 3.96345 94.8365C3.9806 94.8267 3.99774 94.8185 4.01407 94.8095C4.10713 94.7597 4.20101 94.7116 4.29652 94.665C4.33244 94.6479 4.36918 94.6307 4.40591 94.6136C4.4851 94.576 4.56592 94.5393 4.64755 94.5042C4.68428 94.4879 4.72102 94.4724 4.75776 94.4569C4.85735 94.4152 4.95858 94.3752 5.0598 94.3377C5.07613 94.3311 5.09246 94.3246 5.10878 94.3189C5.22634 94.2756 5.34552 94.2356 5.46553 94.1981C5.49981 94.1875 5.53492 94.1769 5.57002 94.1671C5.65818 94.1401 5.74716 94.1148 5.83615 94.0911C5.87696 94.0805 5.91778 94.0699 5.9586 94.0593C6.05166 94.0364 6.14472 94.0152 6.23942 93.9948C6.27126 93.9875 6.3031 93.9801 6.33575 93.9736C6.46065 93.9483 6.58637 93.9262 6.71372 93.9058C6.74066 93.9017 6.76759 93.8985 6.79535 93.8952C6.89658 93.8805 6.99862 93.8675 7.10148 93.856C7.14311 93.8511 7.18556 93.8479 7.22801 93.8438C7.32108 93.8348 7.41496 93.8283 7.50883 93.8226C7.54884 93.8201 7.58884 93.8168 7.62884 93.8152C7.76027 93.8087 7.89252 93.8054 8.02558 93.8054C8.16436 93.8054 8.30151 93.8087 8.43783 93.8152C8.4811 93.8177 8.52518 93.8217 8.56845 93.8242C8.6607 93.8299 8.75294 93.8364 8.84437 93.8454C8.89662 93.8503 8.94723 93.856 8.99866 93.8617C9.08193 93.8715 9.1652 93.8822 9.24683 93.8936C9.30071 93.9009 9.35459 93.9099 9.40765 93.9189C9.48765 93.932 9.56684 93.9458 9.64521 93.9605C9.69909 93.9711 9.75215 93.9818 9.80521 93.9932C9.8844 94.0095 9.96358 94.0283 10.0428 94.0479C10.0926 94.0601 10.1432 94.0715 10.1938 94.0846C10.2795 94.1075 10.3644 94.132 10.4501 94.1573C10.4909 94.1695 10.5326 94.1809 10.5734 94.1932C13.5694 95.1336 15.8502 97.688 16.3996 100.837V100.837Z" fill="url(#paint15_linear)"/>
<path d="M51.1358 99.2806C51.4215 100.032 50.8672 100.837 50.0631 100.837H1.14856C0.344462 100.837 -0.209836 100.032 0.0767009 99.2806C0.633447 97.8186 1.58367 96.5508 2.79594 95.6038H48.4157C49.628 96.5508 50.5782 97.8186 51.1358 99.2806Z" fill="url(#paint16_linear)"/>
<path d="M61.9197 68.1338C61.1442 68.8081 59.0584 70.1363 54.8689 69.871C54.4836 69.8465 54.095 69.8473 53.7048 69.8726L60.5809 76.7487C61.7042 74.6417 62.3818 71.8784 62.3042 68.3044C62.3009 68.1069 62.0683 68.0048 61.9197 68.1338Z" fill="url(#paint17_linear)"/>
<path d="M76.7239 74.3984C77.0056 74.4547 77.3084 74.4229 77.604 74.2898C78.4734 73.898 78.9534 72.7731 78.6766 71.7771C76.6643 64.5337 77.6635 58.3091 77.6742 58.247C77.8505 57.1858 77.2709 56.2127 76.3729 56.0764C75.4782 55.9392 74.6088 56.6886 74.4325 57.7499C74.3835 58.0438 73.261 65.0349 75.5288 73.1951C75.7109 73.8531 76.1778 74.2898 76.7239 74.3984V74.3984Z" fill="#8EE388"/>
<path d="M58.1816 31.5542C58.2379 31.2938 58.5244 31.2089 58.6559 31.4138C59.3424 32.4791 61.318 34.7037 66.0609 35.28C70.6161 35.8343 74.9558 40.1013 74.9444 47.2125C74.9435 47.6419 74.4529 47.8321 74.2758 47.468C72.2684 43.3553 69.1198 41.214 66.8168 40.1413C66.5434 40.0132 66.3279 40.4826 66.5801 40.6565C69.163 42.4434 73.5468 46.615 75.3542 53.1718C75.5721 53.9629 75.7525 54.789 75.8881 55.6503C76.8791 54.0249 77.9403 52.6175 79.0359 51.3987C83.4613 46.4729 88.4491 44.619 91.6721 43.9251C92.0051 43.8524 91.9823 43.2794 91.6484 43.2932C88.8214 43.4173 84.6719 44.2769 80.8571 47.6533C80.5192 47.9505 80.0947 47.5464 80.2784 47.1039C83.2947 39.7879 89.5749 37.2474 94.495 38.6164C99.6184 40.0426 102.597 38.5968 103.756 37.7943C103.979 37.6392 104.238 37.8482 104.185 38.1397C100.552 58.3067 86.7871 58.4511 81.4931 55.0388C81.1976 54.8486 80.8033 54.8511 80.3869 54.9556C79.0628 55.287 78.0089 56.5621 77.7003 58.1107L77.6138 58.5458C77.4105 59.5687 76.5754 60.3189 75.706 60.1989C74.8848 60.0855 74.3297 59.2757 74.3574 58.3442C74.368 57.9817 74.3631 57.6185 74.3027 57.2683C73.7982 54.3376 72.1966 53.2004 71.208 53.38C65.6413 54.3931 54.2639 49.5416 58.1816 31.5542V31.5542Z" fill="url(#paint18_linear)"/>
<path d="M58.1816 31.5542C58.2273 31.3411 58.4256 31.2497 58.5685 31.333C58.9024 33.2048 60.3457 37.4751 66.5793 40.6564C69.163 42.4434 73.546 46.6149 75.3542 53.1718C75.5721 53.9629 75.7526 54.789 75.8872 55.6503C75.8905 55.6445 75.8946 55.6388 75.8979 55.6331C76.0146 57.2274 75.946 58.7769 75.7183 60.1997C75.7142 60.1989 75.7101 60.1997 75.706 60.1989C74.884 60.0855 74.3297 59.2756 74.3574 58.3442C74.368 57.9817 74.3623 57.6185 74.3027 57.2683C73.7974 54.3376 72.1966 53.2004 71.208 53.38C65.6413 54.3931 54.2639 49.5415 58.1816 31.5542V31.5542Z" fill="url(#paint19_linear)"/>
<path d="M76.6514 54.46C77.4171 53.3261 78.2163 52.3098 79.0359 51.3979C83.4605 46.4729 88.4492 44.619 91.6721 43.9251C99.2339 43.4679 102.875 39.3389 104.001 37.7576C104.128 37.8049 104.218 37.956 104.185 38.1396C100.552 58.3066 86.7871 58.4511 81.4931 55.0388C81.1976 54.8486 80.8033 54.8511 80.387 54.9555C79.0629 55.287 78.009 56.5621 77.7004 58.1107L77.6139 58.5458C77.4106 59.5687 76.5755 60.3189 75.7061 60.1989C75.6416 60.1899 75.5795 60.1753 75.5183 60.1581L76.6514 54.46Z" fill="url(#paint20_linear)"/>
<path d="M77.4196 61.9141C77.3919 64.4137 77.6147 67.9534 78.6776 71.7772C78.9544 72.7731 78.4735 73.898 77.6041 74.2899C77.3086 74.4237 77.0058 74.4548 76.7241 74.3984C76.178 74.2899 75.711 73.8531 75.529 73.196C74.3992 69.1289 74.111 65.3533 74.1118 62.5516L77.4196 61.9141Z" fill="url(#paint21_linear)"/>
<path d="M70.6947 94.5605C70.3085 94.5605 69.9175 94.4593 69.5616 94.2462C68.5175 93.6193 68.1779 92.2641 68.8048 91.2192C73.3633 83.6223 73.6784 76.4915 73.6808 76.4197C73.7266 75.2025 74.747 74.2507 75.9682 74.2972C77.1854 74.3429 78.1356 75.3666 78.0907 76.5838C78.0777 76.9209 77.7242 84.9301 72.5886 93.4895C72.1755 94.1785 71.4449 94.5605 70.6947 94.5605V94.5605Z" fill="#8EE388"/>
<path d="M106.418 51.0894C106.412 50.7873 106.056 50.6306 105.828 50.8281C104.642 51.86 101.45 53.8927 95.0387 53.4853C88.881 53.0959 82.0319 56.8748 80.1804 64.7721C80.0686 65.2489 80.667 65.5689 80.9959 65.204C84.7258 61.0806 89.4435 59.3989 92.766 58.7165C93.1595 58.634 93.3211 59.203 92.9431 59.3402C89.0647 60.7541 82.1829 64.417 78.0759 71.2972C77.5804 72.1274 77.1248 73.005 76.7208 73.9307C75.8391 71.9078 74.8081 70.111 73.6815 68.5159C69.1328 62.0708 63.0356 58.9108 58.9628 57.4291C58.5424 57.2748 58.7228 56.6438 59.1604 56.7327C62.8592 57.4944 68.1108 59.3655 72.2603 63.9558C72.6276 64.3599 73.2946 64.0056 73.1688 63.4741C71.1076 54.6854 63.4846 50.4787 56.6313 50.9122C49.4932 51.3645 45.9413 49.1016 44.6213 47.9546C44.3682 47.7334 43.9723 47.9081 43.965 48.2428C43.4653 71.4343 61.598 74.6336 69.4814 72.0147C69.9214 71.8686 70.4414 71.9584 70.9631 72.1658C72.6243 72.827 73.6807 74.4752 73.6807 76.2622V76.7642C73.6807 77.9455 74.586 78.9618 75.7656 79.0206C76.8799 79.0761 77.8245 78.2998 78.0326 77.2598C78.1134 76.8548 78.2163 76.4532 78.3877 76.0777C79.8237 72.9348 82.2352 72.0262 83.494 72.4441C90.5757 74.7985 106.868 71.9241 106.418 51.0894V51.0894Z" fill="url(#paint22_linear)"/>
<path d="M106.418 51.0893C106.413 50.8428 106.175 50.6967 105.965 50.7579C105.032 52.7629 102.007 57.185 92.9431 59.3402C89.0647 60.7541 82.1829 64.417 78.0758 71.2972C77.5803 72.1274 77.1248 73.005 76.7207 73.9307C76.7175 73.9242 76.7142 73.9176 76.7117 73.9103C76.1395 75.6548 75.8227 77.3895 75.7493 79.019C75.755 79.0198 75.7607 79.0206 75.7664 79.0206C76.8807 79.0769 77.8252 78.2998 78.0334 77.2597C78.1142 76.8548 78.2163 76.4532 78.3885 76.0777C79.8236 72.9356 82.2359 72.0262 83.4939 72.4441C90.5757 74.7985 106.867 71.9241 106.418 51.0893V51.0893Z" fill="url(#paint23_linear)"/>
<path d="M76.0255 72.4417C75.312 71.0139 74.5234 69.7085 73.6817 68.5158C69.1331 62.0708 63.0358 58.9107 58.963 57.4291C49.1024 55.2519 45.3807 49.864 44.3088 47.8599C44.1284 47.8852 43.9701 48.0321 43.9652 48.2435C43.4664 71.4351 61.5982 74.6344 69.4816 72.0147C69.9216 71.8686 70.4425 71.9584 70.9641 72.1665C72.6246 72.827 73.6809 74.4752 73.6809 76.263V76.765C73.6809 77.9455 74.5871 78.9626 75.7667 79.0214C75.854 79.0255 75.9397 79.023 76.0246 79.0173V72.4417H76.0255Z" fill="url(#paint24_linear)"/>
<path d="M73.0546 80.5471C72.435 83.3284 71.2113 87.2085 68.8055 91.2192C68.1785 92.2642 68.5173 93.6193 69.5623 94.2462C69.9174 94.4593 70.3084 94.5605 70.6953 94.5605C71.4447 94.5605 72.1754 94.1785 72.5884 93.4895C75.1477 89.2241 76.5191 85.0958 77.253 81.9847L73.0546 80.5471Z" fill="url(#paint25_linear)"/>
<path d="M78.3879 76.0777C78.4393 75.9666 78.4908 75.8597 78.5438 75.7544L76.7209 73.9307C76.7209 73.9307 77.9153 76.3658 77.8059 78.872L77.8532 78.863C77.9585 78.1422 78.0181 77.5691 78.0516 77.1765C78.13 76.8001 78.2287 76.4279 78.3879 76.0777V76.0777Z" fill="url(#paint26_linear)"/>
<path d="M83.1838 26.0055C84.4597 28.786 88.17 38.9446 78.1167 45.8664C77.9633 45.9717 77.7535 45.939 77.6392 45.7929C77.2351 45.2786 76.3102 44.0149 75.471 42.2385C73.4481 37.956 74.6759 32.8457 78.4114 29.9338C79.7127 28.9199 81.125 27.5925 82.3699 25.9173C82.5854 25.6275 83.0336 25.6773 83.1838 26.0055Z" fill="url(#paint27_linear)"/>
<path d="M83.1839 26.0055C83.1178 25.861 82.9937 25.7704 82.8574 25.7394C82.1471 28.8586 80.2949 32.6636 78.4907 36.1576C76.458 40.094 77.4499 44.6876 77.7666 45.8925C77.8769 45.9447 78.0099 45.9398 78.1169 45.8664C88.1701 38.9446 84.4598 28.786 83.1839 26.0055Z" fill="url(#paint28_linear)"/>
<path d="M97.3442 92.376C96.1164 92.376 94.9401 92.5923 93.8494 92.9891C92.8429 93.3548 91.7171 93.0887 90.9784 92.3132C89.5726 90.838 87.5889 89.9188 85.3897 89.9188C84.6941 89.9188 84.0198 90.0111 83.379 90.1833C82.428 90.4388 81.4165 90.1409 80.7373 89.4282C78.0222 86.5783 74.1911 84.8011 69.9436 84.8011C64.87 84.8011 60.3875 87.3383 57.6952 91.2127C57.1637 91.9776 56.2829 92.4087 55.3515 92.3809C55.2478 92.3776 55.1441 92.376 55.0396 92.376C50.6714 92.376 46.9439 95.1132 45.4761 98.9647C45.1317 99.8684 45.7986 100.837 46.766 100.837H105.618C106.585 100.837 107.253 99.8684 106.908 98.9647C105.44 95.1124 101.712 92.376 97.3442 92.376V92.376Z" fill="url(#paint29_linear)"/>
<path d="M55.0397 92.376C54.8797 92.376 54.7205 92.3809 54.5621 92.3882C54.5139 92.3907 54.4658 92.3939 54.4184 92.3964C54.3049 92.4029 54.1923 92.4119 54.0796 92.4225C54.029 92.4274 53.9784 92.4315 53.9278 92.4372C53.8037 92.4511 53.6813 92.4666 53.5588 92.4837C53.5262 92.4886 53.4935 92.4927 53.4608 92.4976C53.3082 92.5213 53.1572 92.5482 53.0061 92.5784C52.967 92.5866 52.9286 92.5956 52.8902 92.6037C52.7768 92.6282 52.6641 92.6544 52.5531 92.6821C52.5033 92.6944 52.4543 92.7066 52.4053 92.7197C52.2984 92.7482 52.1914 92.7793 52.0853 92.8111C52.0437 92.8233 52.0012 92.8356 51.9596 92.8486C51.8151 92.8944 51.6722 92.9417 51.531 92.9939C51.5114 93.0005 51.4918 93.0086 51.4722 93.016C51.3498 93.0617 51.2281 93.1099 51.1081 93.1597C51.0641 93.1784 51.0192 93.198 50.9751 93.2168C50.8771 93.2593 50.78 93.3033 50.6845 93.3482C50.6404 93.3687 50.5963 93.3899 50.553 93.4111C50.4387 93.4666 50.3261 93.5246 50.2142 93.5842C50.1938 93.5956 50.1726 93.6054 50.1522 93.6168C50.0224 93.6878 49.8942 93.7613 49.7677 93.8381C49.7293 93.8609 49.6926 93.8846 49.6551 93.9083C49.5644 93.9646 49.4746 94.0217 49.3857 94.0805C49.3432 94.1091 49.3008 94.1376 49.2591 94.1662C49.1693 94.2274 49.0812 94.2903 48.9938 94.3548C48.9603 94.3793 48.9261 94.4038 48.8926 94.4283C48.7759 94.5164 48.6607 94.607 48.5481 94.6993C48.5203 94.7222 48.4934 94.7458 48.4656 94.7695C48.3799 94.8413 48.2942 94.9148 48.2109 94.9899C48.1718 95.025 48.1334 95.0609 48.095 95.096C48.0207 95.1646 47.9481 95.234 47.8771 95.3042C47.8403 95.3401 47.8044 95.3752 47.7685 95.4111C47.6754 95.505 47.584 95.6005 47.495 95.6977C47.477 95.7173 47.4599 95.7361 47.4428 95.7548C47.353 95.8544 47.2648 95.9565 47.1791 96.0593C47.1456 96.1001 47.113 96.141 47.0795 96.1818C47.0183 96.2577 46.9587 96.3336 46.8991 96.4112C46.8648 96.4561 46.8313 96.501 46.7978 96.5459C46.7358 96.63 46.6762 96.7149 46.6166 96.8006C46.5913 96.8373 46.5652 96.874 46.5399 96.9108C46.4607 97.0291 46.384 97.1491 46.3089 97.2708C46.2827 97.314 46.2574 97.3581 46.2321 97.4022C46.1815 97.4863 46.1325 97.5712 46.0852 97.6577C46.0558 97.71 46.028 97.7622 45.9995 97.8153C45.9554 97.8986 45.9129 97.9818 45.8705 98.0667C45.8452 98.1173 45.8199 98.1671 45.7962 98.2186C45.735 98.3467 45.6762 98.4757 45.6199 98.6071C45.6035 98.6463 45.588 98.6871 45.5717 98.7271C45.5358 98.8137 45.5015 98.901 45.468 98.9892C45.1456 99.8855 45.8076 100.837 46.766 100.837H65.1158C64.2766 96.0308 60.0863 92.376 55.0397 92.376V92.376Z" fill="url(#paint30_linear)"/>
<path d="M84.8492 99.706C84.8492 95.7271 83.2892 92.1123 80.7488 89.4396C80.7455 89.4355 80.7414 89.4323 80.7373 89.4274C80.0589 88.7155 79.3104 88.0706 78.5038 87.5033C78.5022 87.5024 78.5005 87.5016 78.4989 87.5C78.4009 87.4314 78.3022 87.3637 78.2026 87.2975C78.196 87.2926 78.1887 87.2886 78.1822 87.2837C78.0875 87.2208 77.992 87.1588 77.8964 87.0983C77.8858 87.091 77.8744 87.0845 77.863 87.0779C77.7707 87.02 77.6785 86.9628 77.5846 86.9065C77.5699 86.8975 77.5552 86.8894 77.5405 86.8804C77.4507 86.8273 77.3601 86.7743 77.2687 86.7228C77.2507 86.713 77.2319 86.7024 77.214 86.6926C77.1258 86.6428 77.0368 86.5947 76.9479 86.5465C76.9266 86.5351 76.9054 86.5245 76.8842 86.513C76.7968 86.4673 76.7103 86.4224 76.6221 86.3783C76.5985 86.3661 76.5748 86.3547 76.5503 86.3424C76.4646 86.3 76.378 86.2583 76.2915 86.2175C76.2654 86.2053 76.2393 86.193 76.2131 86.1808C76.1282 86.1416 76.0425 86.1024 75.956 86.0648C75.9282 86.0518 75.9005 86.0404 75.8719 86.0273C75.787 85.9906 75.7021 85.9546 75.6164 85.9195C75.587 85.9073 75.5568 85.8951 75.5274 85.8828C75.4425 85.8485 75.3576 85.8159 75.2727 85.7832C75.2409 85.771 75.2099 85.7587 75.178 85.7473C75.0939 85.7155 75.0099 85.6844 74.925 85.655C74.8915 85.6428 74.8588 85.6314 74.8254 85.6199C74.7413 85.5906 74.6572 85.5628 74.5723 85.535C74.538 85.5236 74.5037 85.5122 74.4694 85.5016C74.3854 85.4746 74.3013 85.4493 74.2164 85.424C74.1804 85.4134 74.1453 85.4028 74.1094 85.3922C74.0253 85.3677 73.9404 85.344 73.8555 85.3212C73.8196 85.3114 73.7829 85.3008 73.7462 85.2918C73.6613 85.2689 73.5764 85.2477 73.4906 85.2273C73.4539 85.2183 73.4172 85.2085 73.3796 85.2003C73.2947 85.1799 73.2082 85.1603 73.1225 85.1424C73.0849 85.1342 73.0482 85.1252 73.0106 85.1179C72.9233 85.0991 72.8359 85.0828 72.7486 85.0656C72.7118 85.0591 72.6751 85.0518 72.6376 85.0444C72.5494 85.0289 72.4604 85.0134 72.3714 84.9995C72.3347 84.993 72.298 84.9865 72.262 84.9807C72.1706 84.9669 72.0792 84.9546 71.9886 84.9416C71.9535 84.9367 71.9184 84.9318 71.8833 84.9269C71.7886 84.9146 71.6939 84.904 71.5984 84.8934C71.5665 84.8901 71.5339 84.886 71.5012 84.882C71.4008 84.8722 71.3004 84.8632 71.1992 84.8542C71.1722 84.8526 71.1445 84.8493 71.1175 84.8469C71.0057 84.8387 70.893 84.8314 70.7812 84.8256C70.7641 84.824 70.7477 84.8232 70.7306 84.8224C70.4694 84.8085 70.2073 84.8011 69.9428 84.8011C69.7951 84.8011 69.6481 84.8044 69.502 84.8085C69.4636 84.8093 69.4252 84.8118 69.3869 84.8126C69.2791 84.8167 69.1714 84.8216 69.0644 84.8281C69.0179 84.8305 68.9722 84.8338 68.9265 84.8371C68.8228 84.8436 68.7191 84.8518 68.6162 84.8607C68.5738 84.8648 68.5322 84.8681 68.4897 84.8722C68.3624 84.8844 68.2358 84.8983 68.1093 84.9138C68.0938 84.9163 68.0791 84.9171 68.0636 84.9195C67.9199 84.9375 67.777 84.9579 67.6342 84.9799C67.6032 84.9848 67.5713 84.9905 67.5395 84.9954C67.4309 85.0134 67.3215 85.0322 67.2138 85.0518C67.1705 85.0599 67.1272 85.0681 67.084 85.0771C66.9844 85.0958 66.8856 85.1163 66.7868 85.1375C66.7452 85.1465 66.7036 85.1554 66.6619 85.1652C66.5501 85.1897 66.4382 85.2167 66.3272 85.2444C66.3027 85.251 66.2774 85.2567 66.2521 85.2632C66.1133 85.2983 65.9754 85.3359 65.8382 85.375C65.8211 85.3799 65.8039 85.3848 65.7868 85.3897C65.6692 85.424 65.5525 85.4591 65.4366 85.4959C65.3999 85.5081 65.3631 85.5195 65.3264 85.5318C65.2276 85.5636 65.1296 85.5971 65.0317 85.6314C64.9941 85.6444 64.9566 85.6575 64.919 85.6706C64.8145 85.7081 64.7109 85.7473 64.6072 85.7865C64.5811 85.7971 64.5541 85.8069 64.5272 85.8167C64.2643 85.9195 64.0047 86.0297 63.7492 86.1465C63.7215 86.1595 63.6945 86.1718 63.6676 86.1849C63.568 86.2314 63.4676 86.2787 63.3688 86.3277C63.337 86.3432 63.3059 86.3587 63.2741 86.3751C63.1745 86.4249 63.0757 86.4755 62.9769 86.5277C62.9525 86.5408 62.9271 86.5538 62.9027 86.5669C62.6529 86.7008 62.408 86.842 62.1671 86.989C62.1516 86.9987 62.1369 87.0085 62.1214 87.0175C62.0186 87.0812 61.9165 87.1457 61.8153 87.2118C61.79 87.2281 61.7647 87.2453 61.7402 87.2616C61.6447 87.3245 61.55 87.3881 61.4569 87.4535C61.4349 87.4681 61.4128 87.4837 61.3916 87.4984C61.1581 87.6624 60.9304 87.8322 60.7075 88.0086C60.7059 88.0094 60.7051 88.0102 60.7034 88.011C60.5965 88.0959 60.4912 88.1816 60.3867 88.269C60.3671 88.2853 60.3491 88.3016 60.3295 88.3171C60.2406 88.3923 60.1516 88.469 60.0642 88.5474C60.0446 88.5637 60.0259 88.5808 60.0063 88.598C59.9099 88.6845 59.8144 88.7727 59.7197 88.8616C59.7132 88.8674 59.7075 88.8723 59.7018 88.878C59.4944 89.0747 59.2928 89.2764 59.0969 89.4845C59.083 89.4992 59.0699 89.5139 59.056 89.5286C58.9736 89.616 58.8928 89.7049 58.8136 89.7939C58.7956 89.8135 58.7785 89.8331 58.7613 89.8527C58.6797 89.9449 58.5997 90.038 58.5205 90.1327C58.5099 90.1449 58.4993 90.1572 58.4895 90.1694C58.3066 90.389 58.1303 90.6127 57.9605 90.8421C57.9507 90.8552 57.9417 90.8682 57.9319 90.8813C57.8593 90.9801 57.7883 91.0797 57.7181 91.1801C56.0299 93.5956 55.0388 96.5353 55.0388 99.706C55.0388 100.086 55.0535 100.464 55.0821 100.837H84.806C84.8346 100.464 84.8492 100.086 84.8492 99.706V99.706Z" fill="url(#paint31_linear)"/>
<path d="M87.2688 100.837H105.618C106.576 100.837 107.239 99.8864 106.916 98.9892C106.882 98.901 106.848 98.8137 106.812 98.7271C106.796 98.6871 106.781 98.6471 106.764 98.6071C106.708 98.4765 106.65 98.3467 106.588 98.2186C106.564 98.1679 106.539 98.1173 106.513 98.0667C106.472 97.9826 106.428 97.8986 106.384 97.8153C106.357 97.7622 106.328 97.71 106.299 97.6577C106.251 97.572 106.202 97.4871 106.152 97.4022C106.126 97.3589 106.101 97.314 106.075 97.2708C106.001 97.1491 105.923 97.0291 105.844 96.9108C105.819 96.874 105.792 96.8381 105.767 96.8006C105.708 96.7149 105.648 96.63 105.586 96.5467C105.552 96.501 105.519 96.4561 105.485 96.412C105.426 96.3344 105.365 96.2577 105.304 96.1818C105.272 96.141 105.239 96.1001 105.205 96.0601C105.119 95.9565 105.032 95.8552 104.942 95.7556C104.924 95.7361 104.907 95.7173 104.89 95.6977C104.8 95.6005 104.708 95.505 104.615 95.4111C104.579 95.3752 104.543 95.3401 104.508 95.305C104.436 95.2348 104.363 95.1646 104.289 95.0969C104.25 95.0609 104.212 95.0258 104.173 94.9907C104.09 94.9156 104.004 94.8413 103.918 94.7695C103.89 94.7466 103.863 94.7222 103.836 94.6993C103.723 94.607 103.608 94.5164 103.491 94.4291C103.458 94.4038 103.423 94.3793 103.39 94.3548C103.303 94.2911 103.214 94.2283 103.125 94.1662C103.083 94.1376 103.041 94.1091 102.998 94.0805C102.909 94.0217 102.82 93.9646 102.73 93.9083C102.691 93.8854 102.654 93.8609 102.616 93.8381C102.49 93.7621 102.361 93.6878 102.232 93.6168C102.211 93.6054 102.191 93.5956 102.17 93.585C102.058 93.5246 101.945 93.4666 101.831 93.4111C101.787 93.3899 101.743 93.3695 101.7 93.3491C101.604 93.3033 101.507 93.2593 101.409 93.2168C101.365 93.198 101.321 93.1784 101.276 93.1597C101.156 93.1099 101.035 93.0617 100.912 93.0168C100.893 93.0095 100.873 93.0013 100.854 92.9939C100.712 92.9425 100.569 92.8944 100.424 92.8486C100.383 92.8356 100.34 92.8233 100.298 92.8111C100.192 92.7793 100.085 92.749 99.9784 92.7205C99.9295 92.7074 99.8805 92.6944 99.8315 92.6821C99.7197 92.6544 99.607 92.6282 99.4935 92.6046C99.4552 92.5956 99.4168 92.5866 99.3776 92.5792C99.2274 92.5482 99.0756 92.5213 98.9229 92.4976C98.8903 92.4927 98.8576 92.4886 98.825 92.4846C98.7025 92.4666 98.5801 92.4511 98.4568 92.4372C98.4062 92.4323 98.3547 92.4274 98.3041 92.4225C98.1923 92.4119 98.0788 92.4037 97.9662 92.3972C97.918 92.3939 97.8698 92.3907 97.8225 92.3882C97.6641 92.3809 97.5049 92.376 97.3449 92.376C97.1784 92.376 97.0135 92.3809 96.8494 92.389C96.7963 92.3915 96.7441 92.3956 96.691 92.3997C96.58 92.4062 96.469 92.4143 96.3596 92.4241C96.2967 92.4307 96.2355 92.438 96.1735 92.4454C96.0739 92.4568 95.9743 92.469 95.8747 92.4829C95.8102 92.4919 95.7457 92.5025 95.6812 92.5131C95.5857 92.5286 95.4902 92.5458 95.3955 92.5637C95.3318 92.5768 95.2673 92.589 95.2037 92.6021C95.1081 92.6225 95.0126 92.6454 94.9179 92.6682C94.8575 92.6829 94.7971 92.6968 94.7367 92.7131C94.633 92.7401 94.5302 92.7703 94.4281 92.8005C94.3783 92.8152 94.3285 92.8282 94.2796 92.8437C90.6738 93.9744 87.93 97.0479 87.2688 100.837V100.837Z" fill="url(#paint32_linear)"/>
<path d="M45.4761 98.9639C45.1317 99.8676 45.7986 100.837 46.766 100.837H105.618C106.585 100.837 107.252 99.8676 106.908 98.9639C106.237 97.2055 105.095 95.6798 103.636 94.541H48.7481C47.2892 95.6798 46.1464 97.2055 45.4761 98.9639V98.9639Z" fill="url(#paint33_linear)"/>
<path d="M63.6193 91.0388C63.6193 91.4543 63.2821 91.7907 62.8666 91.7907C62.4519 91.7907 62.1147 91.4543 62.1147 91.0388C62.1147 90.6233 62.4519 90.2861 62.8666 90.2861C63.2821 90.2861 63.6193 90.6233 63.6193 91.0388Z" fill="#827A74"/>
<path d="M71.6089 92.2976C71.6089 92.9556 71.0758 93.4887 70.4179 93.4887C69.7599 93.4887 69.2268 92.9556 69.2268 92.2976C69.2268 91.6405 69.7599 91.1066 70.4179 91.1066C71.0758 91.1066 71.6089 91.6405 71.6089 92.2976Z" fill="#827A74"/>
<path d="M69.1991 88.9726C69.1991 89.9849 68.3786 90.8053 67.3664 90.8053C66.3549 90.8053 65.5337 89.9849 65.5337 88.9726C65.5337 87.9612 66.3549 87.1407 67.3664 87.1407C68.3786 87.1407 69.1991 87.9612 69.1991 88.9726V88.9726Z" fill="#827A74"/>
<path d="M24.5376 93.9882C24.5376 94.4038 24.2013 94.7401 23.7858 94.7401C23.3703 94.7401 23.0339 94.4038 23.0339 93.9882C23.0339 93.5727 23.3703 93.2364 23.7858 93.2364C24.2013 93.2364 24.5376 93.5727 24.5376 93.9882Z" fill="#827A74"/>
<path d="M32.5281 95.2479C32.5281 95.905 31.995 96.4389 31.337 96.4389C30.6791 96.4389 30.146 95.905 30.146 95.2479C30.146 94.5899 30.6791 94.0568 31.337 94.0568C31.995 94.0568 32.5281 94.5899 32.5281 95.2479Z" fill="#827A74"/>
<path d="M30.1183 91.9229C30.1183 92.9352 29.2978 93.7556 28.2856 93.7556C27.2733 93.7556 26.4529 92.9352 26.4529 91.9229C26.4529 90.9106 27.2733 90.0902 28.2856 90.0902C29.2978 90.0902 30.1183 90.9106 30.1183 91.9229V91.9229Z" fill="#827A74"/>
<path d="M15.5384 64.7868C15.3343 65.0978 14.8967 65.6831 14.1514 66.3248C13.513 66.8742 13.1449 67.6758 13.1416 68.5183V68.5363C13.1465 69.9445 14.291 71.0833 15.6992 71.0792C17.1074 71.0743 18.2462 69.9298 18.2421 68.5216C18.2421 68.5158 18.2421 68.5093 18.2413 68.5028C18.234 67.6603 17.8609 66.8611 17.2192 66.3158C16.4698 65.679 16.029 65.0954 15.8233 64.786C15.7547 64.6839 15.6053 64.6839 15.5384 64.7868V64.7868Z" fill="url(#paint34_linear)"/>
<path d="M10.4981 75.0205C10.2932 75.3315 9.85646 75.9176 9.11114 76.5585C8.47275 77.1079 8.10377 77.9095 8.10132 78.752V78.77C8.1054 80.1782 9.25073 81.317 10.6589 81.3129C12.0671 81.3088 13.2051 80.1635 13.201 78.7553C13.201 78.7496 13.201 78.743 13.201 78.7365C13.1929 77.894 12.8198 77.0948 12.1781 76.5495C11.4296 75.9128 10.9887 75.3291 10.7822 75.0197C10.7144 74.9176 10.565 74.9184 10.4981 75.0205V75.0205Z" fill="url(#paint35_linear)"/>
<path d="M4.10202 68.6252C3.89794 68.9362 3.46119 69.5216 2.71506 70.1632C2.07668 70.7126 1.7085 71.5143 1.70605 72.3567V72.3747C1.71014 73.7829 2.85465 74.9217 4.26366 74.9168C5.67185 74.9127 6.80984 73.7682 6.80576 72.36C6.80576 72.3535 6.80576 72.3478 6.80576 72.3412C6.79759 71.4988 6.42452 70.6996 5.78288 70.1542C5.03347 69.5175 4.59265 68.9338 4.38693 68.6244C4.31917 68.5224 4.16978 68.5232 4.10202 68.6252V68.6252Z" fill="url(#paint36_linear)"/>
<path d="M58.3588 20.256C56.7351 21.4323 54.4607 21.0658 53.286 19.4421L53.0697 19.1408L53.0076 19.0527C47.2777 39.0466 29.7386 54.1008 8.45485 56.1409C6.29236 56.3482 4.42456 54.6372 4.42456 52.4649C4.42456 50.5726 5.8548 48.975 7.73892 48.7946C25.6871 47.0745 40.5257 34.5559 45.6695 17.829L45.232 18.1474C43.6058 19.3221 41.3364 18.9596 40.1592 17.331C38.9829 15.7073 39.3494 13.4338 40.9731 12.2566L47.1585 7.7863L48.5945 6.75118C48.61 6.7373 48.6271 6.72668 48.6451 6.71362C48.6827 6.68913 48.7186 6.66464 48.7578 6.6426C48.8092 6.6075 48.8639 6.57403 48.9153 6.54301C48.9569 6.51852 48.9994 6.49648 49.0394 6.47688C49.0965 6.44341 49.1537 6.41974 49.2116 6.3928C49.2492 6.37484 49.2908 6.3528 49.3333 6.33566C49.4263 6.29974 49.5194 6.26218 49.6141 6.23361C49.6582 6.22218 49.6982 6.21157 49.7423 6.19769C49.8043 6.18055 49.868 6.16504 49.9325 6.14953C49.9766 6.1381 50.0215 6.13157 50.0655 6.12259C50.1357 6.10953 50.2043 6.0981 50.2737 6.09157C50.3113 6.08749 50.3504 6.08096 50.388 6.07606C50.5015 6.06708 50.6092 6.06055 50.7227 6.06055C50.8329 6.06055 50.9456 6.06708 51.0541 6.07606C51.0958 6.08096 51.1341 6.08749 51.1758 6.09157C51.2182 6.09647 51.2599 6.0981 51.2974 6.10708C51.3219 6.10953 51.3439 6.11851 51.366 6.12014C51.4346 6.13402 51.5031 6.14953 51.5701 6.16504C51.6158 6.1732 51.6648 6.18708 51.7113 6.20014C51.7799 6.2181 51.8484 6.24178 51.9195 6.26627C51.9595 6.28178 52.0035 6.29729 52.0476 6.3128C52.1121 6.34137 52.1807 6.36831 52.2444 6.39688C52.286 6.41892 52.3309 6.43688 52.3725 6.46137C52.4346 6.49158 52.4942 6.52505 52.5546 6.55852C52.5962 6.58464 52.6403 6.61158 52.6803 6.63607C52.7358 6.67362 52.7913 6.70872 52.8419 6.74873C52.886 6.77975 52.9301 6.81077 52.9725 6.84424C53.0207 6.88424 53.0672 6.92179 53.1138 6.96342C53.1562 7.00098 53.1979 7.03853 53.2403 7.07853C53.2844 7.12016 53.3244 7.16261 53.3685 7.21159C53.406 7.24915 53.4436 7.29078 53.4811 7.33323C53.5236 7.38139 53.5611 7.43201 53.6011 7.48344C53.6232 7.51201 53.6468 7.5365 53.6673 7.56507L54.4852 8.69571L59.1751 15.184C60.349 16.8094 59.9866 19.0813 58.3588 20.256Z" fill="url(#paint37_linear)"/>
<path d="M97.4755 20.7311C94.9342 19.8437 92.9015 17.5033 92.0305 14.4991C91.9799 14.3236 91.8223 14.2003 91.6394 14.2003H91.5007C91.3178 14.2003 91.1602 14.3236 91.1096 14.4991C90.2386 17.5033 88.2059 19.8437 85.6646 20.7311C85.4981 20.789 85.3838 20.9417 85.3838 21.1172C85.3838 21.2935 85.4981 21.4462 85.6646 21.5042C88.2059 22.3915 90.2386 24.732 91.1096 27.7361C91.1602 27.9117 91.3178 28.0349 91.5007 28.0349H91.6394C91.8223 28.0349 91.9799 27.9117 92.0305 27.7361C92.9015 24.732 94.9342 22.3915 97.4755 21.5042C97.642 21.4462 97.7563 21.2935 97.7563 21.1172C97.7563 20.9417 97.642 20.789 97.4755 20.7311Z" fill="url(#paint38_linear)"/>
<path d="M104.074 24.5957C102.565 24.0691 101.36 22.6805 100.843 20.8976C100.813 20.7939 100.72 20.7213 100.611 20.7213H100.529C100.421 20.7213 100.327 20.7939 100.297 20.8976C99.7801 22.6805 98.5743 24.0699 97.0665 24.5957C96.9677 24.6299 96.8992 24.7206 96.8992 24.8251C96.8992 24.9295 96.9677 25.0202 97.0665 25.0544C98.5743 25.581 99.7801 26.9696 100.297 28.7525C100.327 28.8562 100.421 28.9296 100.529 28.9296H100.611C100.72 28.9296 100.813 28.8562 100.843 28.7525C101.36 26.9696 102.566 25.581 104.074 25.0544C104.173 25.0202 104.241 24.9295 104.241 24.8251C104.241 24.7206 104.173 24.6299 104.074 24.5957V24.5957Z" fill="url(#paint39_linear)"/>
<path d="M100.608 12.1856C99.1001 11.659 97.8935 10.2704 97.3776 8.48754C97.3474 8.38305 97.2535 8.31039 97.1458 8.31039H97.0633C96.9547 8.31039 96.8617 8.38305 96.8315 8.48754C96.3147 10.2704 95.1082 11.659 93.6004 12.1856C93.5016 12.2199 93.4338 12.3105 93.4338 12.415C93.4338 12.5195 93.5016 12.6101 93.6004 12.6444C95.1082 13.1701 96.3147 14.5595 96.8315 16.3424C96.8617 16.4461 96.9547 16.5187 97.0633 16.5187H97.1458C97.2535 16.5187 97.3474 16.4461 97.3776 16.3424C97.8943 14.5595 99.1001 13.1701 100.608 12.6444C100.707 12.6101 100.775 12.5195 100.775 12.415C100.774 12.3105 100.707 12.2199 100.608 12.1856V12.1856Z" fill="url(#paint40_linear)"/>
</g>
<defs>
<linearGradient id="paint0_linear" x1="41.898" y1="74.2222" x2="41.898" y2="85.0114" gradientUnits="userSpaceOnUse">
<stop stop-color="#CFFFB4"/>
<stop offset="1" stop-color="#8EE388"/>
</linearGradient>
<linearGradient id="paint1_linear" x1="52.3663" y1="76.0745" x2="53.0253" y2="60.5476" gradientUnits="userSpaceOnUse">
<stop stop-color="#8EE388" stop-opacity="0"/>
<stop offset="1" stop-color="#4B9345"/>
</linearGradient>
<linearGradient id="paint2_linear" x1="32.0016" y1="75.6959" x2="32.6665" y2="60.0307" gradientUnits="userSpaceOnUse">
<stop stop-color="#8EE388" stop-opacity="0"/>
<stop offset="1" stop-color="#4B9345"/>
</linearGradient>
<linearGradient id="paint3_linear" x1="41.8475" y1="88.6022" x2="40.8329" y2="90.9517" gradientUnits="userSpaceOnUse">
<stop stop-color="#8EE388" stop-opacity="0"/>
<stop offset="1" stop-color="#4B9345"/>
</linearGradient>
<linearGradient id="paint4_linear" x1="44.9887" y1="85.6758" x2="42.568" y2="84.5187" gradientUnits="userSpaceOnUse">
<stop stop-color="#8EE388" stop-opacity="0"/>
<stop offset="1" stop-color="#4B9345"/>
</linearGradient>
<linearGradient id="paint5_linear" x1="40.5509" y1="68.2778" x2="41.6329" y2="68.2778" gradientUnits="userSpaceOnUse">
<stop stop-color="#FFF9B4"/>
<stop offset="1" stop-color="#FFF465"/>
</linearGradient>
<linearGradient id="paint6_linear" x1="42.3145" y1="73.3752" x2="44.0279" y2="73.3752" gradientUnits="userSpaceOnUse">
<stop stop-color="#FFF9B4"/>
<stop offset="1" stop-color="#FFF465"/>
</linearGradient>
<linearGradient id="paint7_linear" x1="42.7364" y1="70.2523" x2="45.3724" y2="70.2523" gradientUnits="userSpaceOnUse">
<stop stop-color="#FFF9B4"/>
<stop offset="1" stop-color="#FFF465"/>
</linearGradient>
<linearGradient id="paint8_linear" x1="16.8645" y1="88.4434" x2="23.4062" y2="93.6636" gradientUnits="userSpaceOnUse">
<stop stop-color="#FFB92D"/>
<stop offset="1" stop-color="#F59500"/>
</linearGradient>
<linearGradient id="paint9_linear" x1="21.0308" y1="89.599" x2="15.6512" y2="92.5043" gradientUnits="userSpaceOnUse">
<stop stop-color="#BE3F45" stop-opacity="0"/>
<stop offset="1" stop-color="#BE3F45"/>
</linearGradient>
<linearGradient id="paint10_linear" x1="9.15609" y1="91.2762" x2="10.201" y2="98.3204" gradientUnits="userSpaceOnUse">
<stop stop-color="#FFB92D"/>
<stop offset="1" stop-color="#F59500"/>
</linearGradient>
<linearGradient id="paint11_linear" x1="11.08" y1="94.4122" x2="6.04548" y2="93.1007" gradientUnits="userSpaceOnUse">
<stop stop-color="#BE3F45" stop-opacity="0"/>
<stop offset="1" stop-color="#BE3F45"/>
</linearGradient>
<linearGradient id="paint12_linear" x1="17.0933" y1="107.749" x2="45.7875" y2="79.0542" gradientUnits="userSpaceOnUse">
<stop stop-color="#827A74"/>
<stop offset="1" stop-color="#605B55"/>
</linearGradient>
<linearGradient id="paint13_linear" x1="42.7089" y1="101.205" x2="45.5736" y2="91.9951" gradientUnits="userSpaceOnUse">
<stop stop-color="#605B55" stop-opacity="0"/>
<stop offset="1" stop-color="#4C4843"/>
</linearGradient>
<linearGradient id="paint14_linear" x1="28.5993" y1="94.6529" x2="22.5662" y2="83.3134" gradientUnits="userSpaceOnUse">
<stop stop-color="#605B55" stop-opacity="0"/>
<stop offset="1" stop-color="#4C4843"/>
</linearGradient>
<linearGradient id="paint15_linear" x1="8.57081" y1="98.293" x2="10.0973" y2="90.388" gradientUnits="userSpaceOnUse">
<stop stop-color="#605B55" stop-opacity="0"/>
<stop offset="1" stop-color="#4C4843"/>
</linearGradient>
<linearGradient id="paint16_linear" x1="25.6059" y1="96.9739" x2="25.6059" y2="101.12" gradientUnits="userSpaceOnUse">
<stop stop-color="#605B55" stop-opacity="0"/>
<stop offset="1" stop-color="#4C4843"/>
</linearGradient>
<linearGradient id="paint17_linear" x1="64.136" y1="75.1739" x2="57.2599" y2="68.2978" gradientUnits="userSpaceOnUse">
<stop stop-color="#8EE388" stop-opacity="0"/>
<stop offset="1" stop-color="#4B9345"/>
</linearGradient>
<linearGradient id="paint18_linear" x1="79.3761" y1="43.9243" x2="76.5303" y2="58.2301" gradientUnits="userSpaceOnUse">
<stop stop-color="#CFFFB4"/>
<stop offset="1" stop-color="#8EE388"/>
</linearGradient>
<linearGradient id="paint19_linear" x1="67.1926" y1="44.0661" x2="70.3919" y2="23.4492" gradientUnits="userSpaceOnUse">
<stop stop-color="#8EE388" stop-opacity="0"/>
<stop offset="1" stop-color="#4B9345"/>
</linearGradient>
<linearGradient id="paint20_linear" x1="90.0179" y1="48.066" x2="93.2912" y2="26.9703" gradientUnits="userSpaceOnUse">
<stop stop-color="#8EE388" stop-opacity="0"/>
<stop offset="1" stop-color="#4B9345"/>
</linearGradient>
<linearGradient id="paint21_linear" x1="76.4473" y1="67.8773" x2="77.5761" y2="74.1985" gradientUnits="userSpaceOnUse">
<stop stop-color="#8EE388" stop-opacity="0"/>
<stop offset="1" stop-color="#4B9345"/>
</linearGradient>
<linearGradient id="paint22_linear" x1="75.1909" y1="60.1448" x2="75.1909" y2="76.6547" gradientUnits="userSpaceOnUse">
<stop stop-color="#CFFFB4"/>
<stop offset="1" stop-color="#8EE388"/>
</linearGradient>
<linearGradient id="paint23_linear" x1="91.2102" y1="62.9795" x2="92.2185" y2="39.2194" gradientUnits="userSpaceOnUse">
<stop stop-color="#8EE388" stop-opacity="0"/>
<stop offset="1" stop-color="#4B9345"/>
</linearGradient>
<linearGradient id="paint24_linear" x1="60.0475" y1="62.3998" x2="61.0649" y2="38.4287" gradientUnits="userSpaceOnUse">
<stop stop-color="#8EE388" stop-opacity="0"/>
<stop offset="1" stop-color="#4B9345"/>
</linearGradient>
<linearGradient id="paint25_linear" x1="75.1139" y1="82.1496" x2="73.5614" y2="85.7448" gradientUnits="userSpaceOnUse">
<stop stop-color="#8EE388" stop-opacity="0"/>
<stop offset="1" stop-color="#4B9345"/>
</linearGradient>
<linearGradient id="paint26_linear" x1="79.9209" y1="77.6714" x2="76.2166" y2="75.9011" gradientUnits="userSpaceOnUse">
<stop stop-color="#8EE388" stop-opacity="0"/>
<stop offset="1" stop-color="#4B9345"/>
</linearGradient>
<linearGradient id="paint27_linear" x1="77.4199" y1="39.648" x2="87.2065" y2="26.0165" gradientUnits="userSpaceOnUse">
<stop stop-color="#CFFFB4"/>
<stop offset="1" stop-color="#8EE388"/>
</linearGradient>
<linearGradient id="paint28_linear" x1="82.8629" y1="34.892" x2="59.2054" y2="44.045" gradientUnits="userSpaceOnUse">
<stop stop-color="#8EE388" stop-opacity="0"/>
<stop offset="1" stop-color="#4B9345"/>
</linearGradient>
<linearGradient id="paint29_linear" x1="86.434" y1="109.153" x2="51.9102" y2="74.6289" gradientUnits="userSpaceOnUse">
<stop stop-color="#827A74"/>
<stop offset="1" stop-color="#605B55"/>
</linearGradient>
<linearGradient id="paint30_linear" x1="55.6143" y1="101.28" x2="52.1679" y2="90.1985" gradientUnits="userSpaceOnUse">
<stop stop-color="#605B55" stop-opacity="0"/>
<stop offset="1" stop-color="#4C4843"/>
</linearGradient>
<linearGradient id="paint31_linear" x1="72.5906" y1="93.3966" x2="79.8493" y2="79.7533" gradientUnits="userSpaceOnUse">
<stop stop-color="#605B55" stop-opacity="0"/>
<stop offset="1" stop-color="#4C4843"/>
</linearGradient>
<linearGradient id="paint32_linear" x1="96.6878" y1="97.7762" x2="94.8512" y2="88.2652" gradientUnits="userSpaceOnUse">
<stop stop-color="#605B55" stop-opacity="0"/>
<stop offset="1" stop-color="#4C4843"/>
</linearGradient>
<linearGradient id="paint33_linear" x1="76.1918" y1="96.1891" x2="76.1918" y2="101.177" gradientUnits="userSpaceOnUse">
<stop stop-color="#605B55" stop-opacity="0"/>
<stop offset="1" stop-color="#4C4843"/>
</linearGradient>
<linearGradient id="paint34_linear" x1="14.8291" y1="67.5298" x2="19.1177" y2="71.7926" gradientUnits="userSpaceOnUse">
<stop stop-color="#62E1FB"/>
<stop offset="1" stop-color="#00A2F3"/>
</linearGradient>
<linearGradient id="paint35_linear" x1="9.78841" y1="77.7635" x2="14.077" y2="82.0265" gradientUnits="userSpaceOnUse">
<stop stop-color="#62E1FB"/>
<stop offset="1" stop-color="#00A2F3"/>
</linearGradient>
<linearGradient id="paint36_linear" x1="3.39302" y1="71.3683" x2="7.68164" y2="75.6311" gradientUnits="userSpaceOnUse">
<stop stop-color="#62E1FB"/>
<stop offset="1" stop-color="#00A2F3"/>
</linearGradient>
<linearGradient id="paint37_linear" x1="34.3257" y1="35.5479" x2="41.8469" y2="42.3316" gradientUnits="userSpaceOnUse">
<stop stop-color="#FF4C54"/>
<stop offset="1" stop-color="#BE3F45"/>
</linearGradient>
<linearGradient id="paint38_linear" x1="85.3834" y1="21.1176" x2="97.7563" y2="21.1176" gradientUnits="userSpaceOnUse">
<stop stop-color="#FFF9B4"/>
<stop offset="1" stop-color="#FFF465"/>
</linearGradient>
<linearGradient id="paint39_linear" x1="96.8993" y1="24.825" x2="104.241" y2="24.825" gradientUnits="userSpaceOnUse">
<stop stop-color="#FFF9B4"/>
<stop offset="1" stop-color="#FFF465"/>
</linearGradient>
<linearGradient id="paint40_linear" x1="93.4334" y1="12.4147" x2="100.775" y2="12.4147" gradientUnits="userSpaceOnUse">
<stop stop-color="#FFF9B4"/>
<stop offset="1" stop-color="#FFF465"/>
</linearGradient>
<clipPath id="clip0">
<rect width="107" height="107" fill="white"/>
</clipPath>
</defs>
</svg>
