<svg width="106" height="107" viewBox="0 0 106 107" fill="none" xmlns="http://www.w3.org/2000/svg">
<path d="M90.9636 53.6391C90.9636 74.8459 73.9668 92.0366 53 92.0366C32.0332 92.0366 15.0364 74.8459 15.0364 53.6391C15.0364 32.4331 32.0332 15.2424 53 15.2424C73.9668 15.2424 90.9636 32.4331 90.9636 53.6391V53.6391Z" fill="white"/>
<path d="M37.7413 46.8305H31.9711C31.1543 46.8305 30.4919 46.1606 30.4919 45.3353V36.0263C30.4919 35.2002 31.1543 34.5311 31.9711 34.5311H37.7413C38.5573 34.5311 39.2196 35.2002 39.2196 36.0263V45.3353C39.2196 46.1606 38.5573 46.8305 37.7413 46.8305Z" fill="#605B55"/>
<path d="M78.8354 50.1514V90.377H27.1721V50.1514L53.0033 23.8668L78.8354 50.1514Z" fill="url(#paint0_linear)"/>
<path d="M27.1721 57.6486V90.377H59.5976L27.1721 57.6486Z" fill="url(#paint1_linear)"/>
<path d="M78.8354 50.1514V90.377H62.5236L27.1721 54.6222V50.1514L53.0033 23.8668L78.8354 50.1514Z" fill="url(#paint2_linear)"/>
<path d="M78.8362 60.7584L54.3685 36.0116C54.1558 35.457 53.6244 35.0627 53.0001 35.0627C52.189 35.0627 51.5315 35.7277 51.5315 36.5481V36.998C51.1991 37.1608 50.8861 37.3775 50.6112 37.6564L37.0781 51.3439C36.4934 51.9344 36.5047 52.8996 37.1104 53.4763L73.7574 90.3761H78.8362V60.7584Z" fill="url(#paint3_linear)"/>
<path d="M70.8516 90.3769H45.5856L31.6967 76.3296C31.0845 75.9288 30.6777 75.2327 30.6777 74.4434V63.1378C30.6777 61.8995 31.6749 60.8909 32.9001 60.8909H40.959C41.741 60.8909 42.4284 61.3024 42.8255 61.9207L42.7648 61.969L70.8516 90.3769Z" fill="url(#paint4_linear)"/>
<path d="M40.9591 75.3734H32.9002C32.3924 75.3734 31.9807 74.9563 31.9807 74.4426V63.1386C31.9807 62.625 32.3924 62.2078 32.9002 62.2078H40.9591C41.467 62.2078 41.8786 62.625 41.8786 63.1386V74.4426C41.8786 74.9563 41.467 75.3734 40.9591 75.3734Z" fill="#605B55"/>
<path d="M32.901 75.3734H40.9591C41.467 75.3734 41.8794 74.9563 41.8794 74.4426V72.4926L32.123 62.6454C32.0341 62.7886 31.9807 62.9571 31.9807 63.1386V74.4426C31.9807 74.9563 32.3923 75.3734 32.901 75.3734V75.3734Z" fill="url(#paint5_linear)"/>
<path d="M40.959 76.6903H32.9009C31.6749 76.6903 30.6777 75.6826 30.6777 74.4426V63.1386C30.6777 61.8986 31.6749 60.8909 32.9009 60.8909H40.959C42.1842 60.8909 43.1813 61.8995 43.1813 63.1386V74.4426C43.1813 75.6826 42.1842 76.6903 40.959 76.6903ZM33.2826 74.0557H40.5764V63.5255H33.2826V74.0557Z" fill="white"/>
<path d="M32.9009 76.6903H40.959C42.1842 76.6903 43.1813 75.6826 43.1813 74.4426V73.8079L40.5764 71.1782V74.0565H33.2826V63.8167L31.1905 61.7048C30.8702 62.0941 30.6777 62.5939 30.6777 63.1386V74.4434C30.6777 75.6826 31.6749 76.6903 32.9009 76.6903Z" fill="url(#paint6_linear)"/>
<path d="M78.8361 65.554V90.3769H78.0435L64.1546 76.3296C63.5416 75.9288 63.134 75.2327 63.134 74.4434V63.1378C63.134 61.8995 64.1312 60.8909 65.358 60.8909H73.4144C74.1965 60.8909 74.8847 61.3024 75.281 61.9207L75.3133 61.9461L75.2915 61.969L78.8361 65.554Z" fill="url(#paint7_linear)"/>
<path d="M73.4154 75.3734H65.3573C64.8486 75.3734 64.437 74.9563 64.437 74.4426V63.1386C64.437 62.625 64.8486 62.2078 65.3573 62.2078H73.4154C73.9233 62.2078 74.3357 62.625 74.3357 63.1386V74.4426C74.3357 74.9563 73.9233 75.3734 73.4154 75.3734Z" fill="#605B55"/>
<path d="M73.4154 76.6903H65.3574C64.1322 76.6903 63.135 75.6826 63.135 74.4426V63.1386C63.135 61.8986 64.1322 60.8909 65.3574 60.8909H73.4154C74.6406 60.8909 75.6378 61.8995 75.6378 63.1386V74.4426C75.6386 75.6826 74.6414 76.6903 73.4154 76.6903ZM65.7399 74.0557H73.0329V63.5255H65.7399V74.0557Z" fill="white"/>
<path d="M84.6768 53.7846L54.5577 23.313C53.6997 22.4452 52.3079 22.4452 51.449 23.313L21.3235 53.7822C20.7623 54.3506 20.7623 55.2716 21.3235 55.8393L22.607 57.1382C23.169 57.7058 24.0796 57.7058 24.6409 57.1382L52.5942 28.866C52.8206 28.637 53.187 28.637 53.4126 28.866L81.3586 57.1406C81.9207 57.7083 82.8313 57.7083 83.3925 57.1406L84.6768 55.8418C85.238 55.2741 85.238 54.3531 84.6768 53.7846V53.7846Z" fill="url(#paint8_linear)"/>
<path d="M54.5578 23.313C54.1292 22.8787 53.5663 22.6619 53.0034 22.6619V28.6943C53.1522 28.6943 53.3002 28.7515 53.4126 28.866L81.3586 57.1407C81.9207 57.7083 82.8313 57.7083 83.3925 57.1407L84.6768 55.8418C85.238 55.2741 85.238 54.3531 84.6768 53.7846L54.5578 23.313Z" fill="url(#paint9_linear)"/>
<path d="M47.6206 90.3761V64.9962C47.6206 61.9894 50.0306 59.5511 53.0034 59.5511C55.9771 59.5511 58.387 61.9894 58.387 64.9962V90.3761H47.6206Z" fill="url(#paint10_linear)"/>
<path d="M59.7205 90.3761H57.0541V64.9659C57.0541 62.7297 55.245 60.8999 53.034 60.8999H52.9733C50.7534 60.8999 48.9532 62.7199 48.9532 64.9659V90.3761H46.2869V64.9962C46.2869 61.2443 49.2945 58.2032 53.0041 58.2032C56.7128 58.2032 59.7205 61.2443 59.7205 64.9962V90.3761Z" fill="#605B55"/>
<path d="M52.3095 70.2654C52.3095 70.9443 51.7652 71.4948 51.0932 71.4948C50.422 71.4948 49.8777 70.9443 49.8777 70.2654C49.8777 69.5865 50.422 69.036 51.0932 69.036C51.7652 69.036 52.3095 69.5865 52.3095 70.2654Z" fill="white"/>
<path d="M40.6624 50.4131L53.0001 37.9345L65.3379 50.4131H40.6624Z" fill="#605B55"/>
<path d="M53.0001 35.0627C52.189 35.0627 51.5315 35.7277 51.5315 36.5481V50.6118C51.5315 51.4322 52.189 52.0972 53.0001 52.0972C53.8113 52.0972 54.4688 51.4322 54.4688 50.6118V36.5481C54.4688 35.7277 53.8113 35.0627 53.0001 35.0627Z" fill="url(#paint11_linear)"/>
<path d="M40.271 49.5223H65.7294C66.5405 49.5223 67.1988 50.1873 67.1988 51.0077C67.1988 51.8281 66.5405 52.4931 65.7294 52.4931H40.271C39.4598 52.4931 38.8015 51.8281 38.8015 51.0077C38.8015 50.1873 39.4598 49.5223 40.271 49.5223Z" fill="url(#paint12_linear)"/>
<path d="M67.8837 53.8795C67.5077 53.8795 67.1316 53.7347 66.8453 53.4444L54.1267 40.5806C53.5039 39.9516 52.4955 39.9516 51.8736 40.5806L39.1985 53.4002C38.63 53.9752 37.696 54.0341 37.1104 53.4763C36.5047 52.8988 36.4934 51.9344 37.0781 51.3431L50.6104 37.6564C51.9302 36.3216 54.07 36.3216 55.3891 37.6564L68.9221 51.3431C69.4963 51.9238 69.4963 52.8644 68.9221 53.4444C68.6358 53.7347 68.2598 53.8795 67.8837 53.8795V53.8795Z" fill="url(#paint13_linear)"/>
<path d="M68.9213 53.4436C68.6359 53.7348 68.2598 53.8795 67.8837 53.8795C67.5077 53.8795 67.1316 53.7348 66.8454 53.4436L54.4688 40.9274V36.9939C54.8019 37.1567 55.1133 37.3759 55.3891 37.6556L68.9213 51.3439C69.4955 51.9247 69.4955 52.8637 68.9213 53.4436V53.4436Z" fill="url(#paint14_linear)"/>
<path d="M98.3504 55.0762C97.6015 79.5048 77.8413 99.1764 53.5669 99.4226C53.3898 99.4226 53.2127 99.4267 53.0356 99.4267C32.7036 99.3964 15.4674 85.74 9.80481 67.0165L9.65762 67.2218L9.35111 67.6545C7.6795 69.9897 4.44786 70.5165 2.13898 68.8258C-0.173953 67.1359 -0.690723 63.8707 0.980086 61.5314L7.64715 52.2027L8.80927 50.5799C8.83839 50.539 8.87155 50.5014 8.9047 50.4605C8.9605 50.3893 9.0155 50.3149 9.07453 50.2446C9.12629 50.1849 9.18128 50.1251 9.23304 50.0687C9.29612 50.0016 9.35516 49.9387 9.41743 49.8789C9.47647 49.8225 9.5355 49.7669 9.59454 49.7145C9.66085 49.6548 9.72717 49.5992 9.79753 49.5428C9.85656 49.4945 9.91964 49.4495 9.98191 49.4045C10.0563 49.3489 10.1331 49.2966 10.2108 49.2442C10.2698 49.2074 10.3329 49.1698 10.3919 49.1322C10.4768 49.0839 10.5618 49.0357 10.6499 48.9907C10.709 48.9571 10.772 48.931 10.8311 48.9015C10.9233 48.8598 11.0187 48.8189 11.1117 48.778C11.174 48.7551 11.237 48.733 11.2961 48.7109C11.3956 48.6774 11.4918 48.6439 11.5913 48.6177C11.6576 48.5989 11.7239 48.5801 11.7902 48.5653C11.8864 48.5432 11.9819 48.5203 12.0822 48.5015C12.1113 48.4983 12.1444 48.4868 12.1776 48.4827C12.2334 48.4721 12.2924 48.468 12.3515 48.4606C12.4105 48.4533 12.4655 48.4459 12.5245 48.4386C12.679 48.4271 12.8383 48.4156 12.9968 48.4156C13.1553 48.4156 13.3106 48.4271 13.4691 48.4386C13.5241 48.4459 13.5799 48.4533 13.6349 48.4606C13.7311 48.4721 13.8306 48.4868 13.9301 48.5056C13.9932 48.5171 14.0554 48.5277 14.1185 48.5432C14.2107 48.5653 14.2988 48.5874 14.3878 48.6136C14.4501 48.6324 14.5091 48.6471 14.5722 48.6659C14.7048 48.7068 14.8375 48.7592 14.9701 48.8115C15.0291 48.8377 15.0882 48.8672 15.144 48.8933C15.2248 48.931 15.3057 48.9686 15.3874 49.0127C15.4464 49.043 15.5055 49.0765 15.5645 49.1101C15.6381 49.1551 15.7157 49.2033 15.7893 49.2516C15.8451 49.2851 15.8969 49.3187 15.9478 49.3563C15.9737 49.3751 15.9996 49.3898 16.0222 49.4086L18.0618 50.8973L26.8534 57.3263C29.1631 59.0162 29.6831 62.2855 28.0123 64.6207C26.3366 66.96 23.1131 67.4827 20.7993 65.7928L20.1168 65.2923C24.8138 78.8562 37.471 88.6691 52.3902 88.9717C52.6005 88.975 52.8108 88.9791 53.021 88.9791C53.1577 88.9791 53.2976 88.975 53.4343 88.975C65.0183 88.867 75.2745 83.0277 81.5574 74.1285C85.1473 69.0425 87.4376 62.9603 87.9358 56.3783L89.9761 57.8711C90.002 57.8899 90.0279 57.9046 90.0497 57.9226C90.1055 57.9602 90.1573 57.9938 90.2091 58.0273C90.2859 58.0764 90.3603 58.1246 90.4371 58.1688C90.4962 58.2023 90.5552 58.2367 90.6142 58.2661C90.6919 58.3111 90.7727 58.3479 90.8544 58.3856C90.9134 58.4117 90.9684 58.4412 91.0315 58.4673C91.1601 58.5197 91.2935 58.572 91.4294 58.6129C91.4884 58.6318 91.5515 58.6465 91.6106 58.6653C91.6987 58.6915 91.7917 58.7135 91.8799 58.7356C91.9429 58.7504 92.0093 58.7618 92.0715 58.7733C92.171 58.7921 92.2672 58.8068 92.3667 58.8182C92.4225 58.8256 92.4775 58.833 92.5333 58.8403C92.6878 58.8518 92.8463 58.8624 93.0056 58.8624C93.1601 58.8624 93.3186 58.8518 93.4771 58.8403C93.5361 58.833 93.5919 58.8256 93.651 58.8182C93.7059 58.8101 93.765 58.8068 93.824 58.7953C93.8572 58.7921 93.8871 58.7806 93.9203 58.7773C94.0165 58.7585 94.1119 58.7365 94.2082 58.7135C94.2777 58.6988 94.344 58.68 94.4103 58.6612C94.5098 58.635 94.606 58.6015 94.7023 58.568C94.7646 58.5459 94.8276 58.523 94.8867 58.5009C94.9829 58.46 95.0743 58.4191 95.1673 58.3774C95.2296 58.3479 95.2886 58.3218 95.3476 58.2882C95.4366 58.2432 95.5215 58.195 95.6064 58.1467C95.6687 58.1091 95.7318 58.0715 95.7908 58.0347C95.8685 57.9823 95.9461 57.93 96.0197 57.8743C96.082 57.8294 96.141 57.7844 96.2041 57.7361C96.2704 57.6797 96.3407 57.624 96.4071 57.5643C96.4661 57.512 96.5251 57.4564 96.5842 57.3999C96.6464 57.3402 96.7055 57.2772 96.7645 57.2102C96.8203 57.1537 96.8721 57.094 96.923 57.0343C96.9861 56.964 97.0411 56.8887 97.0969 56.8184C97.126 56.7775 97.1592 56.7399 97.1891 56.699L98.3504 55.0762Z" fill="url(#paint15_linear)"/>
<path d="M7.64966 52.2028C8.39853 27.7733 28.1587 8.10174 52.4332 7.85635C52.6103 7.85635 52.7874 7.85226 52.9645 7.85226C73.2956 7.88171 90.5318 21.5389 96.1953 40.2624L96.3425 40.0571L96.649 39.6244C98.3198 37.2884 101.552 36.7625 103.861 38.4531C106.174 40.143 106.691 43.4082 105.019 45.7476L98.3529 55.0762L97.1908 56.699C97.1617 56.7399 97.1285 56.7775 97.0954 56.8184C97.0396 56.8888 96.9846 56.964 96.9255 57.0343C96.8738 57.0941 96.8188 57.1538 96.767 57.2102C96.704 57.2773 96.6449 57.3403 96.5826 57.4C96.5236 57.4564 96.4646 57.512 96.4055 57.5644C96.3392 57.6241 96.2729 57.6797 96.2026 57.7361C96.1435 57.7844 96.0804 57.8294 96.0182 57.8744C95.9446 57.93 95.8669 57.9823 95.7893 58.0347C95.7303 58.0715 95.668 58.1091 95.609 58.1467C95.524 58.195 95.4391 58.2433 95.351 58.2883C95.2919 58.3218 95.2289 58.348 95.1698 58.3774C95.0776 58.4183 94.9814 58.46 94.8892 58.5009C94.8269 58.523 94.7638 58.5459 94.7048 58.568C94.6053 58.6015 94.5091 58.6351 94.4096 58.6612C94.3433 58.68 94.277 58.6989 94.2107 58.7136C94.1144 58.7357 94.019 58.7578 93.9195 58.7766C93.8896 58.7807 93.8565 58.7921 93.8233 58.7954C93.7675 58.8068 93.7085 58.8101 93.6494 58.8175C93.5904 58.8256 93.5354 58.833 93.4764 58.8404C93.3211 58.851 93.1626 58.8624 93.0041 58.8624C92.8456 58.8624 92.6903 58.8518 92.5318 58.8404C92.4768 58.8322 92.421 58.8248 92.366 58.8175C92.2698 58.8068 92.1703 58.7921 92.0708 58.7733C92.0077 58.7618 91.9455 58.7504 91.8824 58.7357C91.7902 58.7136 91.702 58.6907 91.6131 58.6645C91.5508 58.6465 91.4918 58.631 91.4287 58.613C91.2961 58.5721 91.1634 58.5197 91.03 58.4674C90.971 58.4412 90.9119 58.4109 90.8569 58.3848C90.7761 58.348 90.6944 58.3103 90.6135 58.2653C90.5545 58.2359 90.4954 58.2024 90.4364 58.1688C90.3628 58.1238 90.2852 58.0748 90.2116 58.0265C90.1558 57.993 90.104 57.9594 90.0531 57.9226C90.0272 57.9038 90.0013 57.8891 89.9787 57.8703L87.9391 56.3816L79.1475 49.9526C76.8378 48.2619 76.3178 44.9934 77.9886 42.6582C79.6635 40.318 82.8878 39.7962 85.2016 41.4861L85.8841 41.9858C81.1871 28.4227 68.5299 18.6098 53.6107 18.3072C53.4004 18.3031 53.1901 18.2998 52.9799 18.2998C52.8432 18.2998 52.7033 18.3031 52.5666 18.3031C40.9825 18.4119 30.7264 24.2512 24.4435 33.1504C20.8536 38.2356 18.5625 44.3178 18.0643 50.8998L16.0247 49.4078C15.9989 49.389 15.973 49.3743 15.9503 49.3555C15.8953 49.3179 15.8436 49.2843 15.7918 49.2508C15.7142 49.2025 15.6406 49.1535 15.563 49.1093C15.5039 49.0758 15.4449 49.0422 15.3858 49.012C15.309 48.9678 15.2273 48.9302 15.1465 48.8925C15.0874 48.8664 15.0316 48.8369 14.9694 48.8107C14.84 48.7584 14.7073 48.7061 14.5707 48.6652C14.5116 48.6463 14.4494 48.6316 14.3903 48.6128C14.3014 48.5866 14.2092 48.5645 14.1202 48.5425C14.0579 48.5269 13.9916 48.5163 13.9285 48.5048C13.8291 48.486 13.7328 48.4713 13.6334 48.4599C13.5784 48.4525 13.5234 48.4451 13.4676 48.4378C13.3131 48.4263 13.1538 48.4149 12.9953 48.4149C12.84 48.4149 12.6815 48.4263 12.523 48.4378C12.464 48.4451 12.409 48.4525 12.3499 48.4599C12.2941 48.4672 12.2351 48.4713 12.176 48.4819C12.1429 48.486 12.1138 48.4975 12.0806 48.5007C11.9844 48.5196 11.889 48.5416 11.7927 48.5645C11.7224 48.5793 11.656 48.5981 11.5897 48.6169C11.4903 48.6423 11.394 48.6766 11.2986 48.7101C11.2355 48.7322 11.1732 48.7543 11.1142 48.7772C11.018 48.8181 10.9258 48.859 10.8336 48.8999C10.7713 48.9302 10.7123 48.9563 10.6532 48.9899C10.5643 49.0349 10.4794 49.0831 10.3944 49.1314C10.3322 49.169 10.2691 49.2058 10.2101 49.2434C10.1324 49.2958 10.0556 49.3481 9.98119 49.4038C9.91892 49.4487 9.85988 49.4937 9.7968 49.542C9.73049 49.5976 9.66013 49.654 9.59381 49.7138C9.53478 49.7661 9.47574 49.8217 9.4167 49.8773C9.35443 49.9371 9.2954 50.0009 9.23636 50.0679C9.18056 50.1244 9.1288 50.1833 9.07785 50.243C9.01477 50.3141 8.95978 50.3886 8.90398 50.4597C8.87486 50.5006 8.84171 50.5382 8.81178 50.5791L7.64966 52.2028Z" fill="url(#paint16_linear)"/>
<path d="M97.0962 56.8184C97.0404 56.8896 96.9854 56.964 96.9223 57.0351C96.8714 57.0949 96.8196 57.1546 96.7638 57.2102C96.7048 57.2773 96.6457 57.3411 96.5835 57.4008C96.5244 57.4564 96.4654 57.512 96.4064 57.5644C96.3392 57.6241 96.2697 57.6805 96.2034 57.7361C96.1403 57.7852 96.0813 57.8294 96.019 57.8744C95.9446 57.93 95.8669 57.9823 95.7901 58.0347C95.7311 58.0723 95.668 58.1091 95.6057 58.1467C95.5208 58.195 95.4359 58.2441 95.3469 58.2882C95.2879 58.3218 95.2289 58.3479 95.1666 58.3782C95.0736 58.4191 94.9822 58.46 94.886 58.5009C94.8269 58.5238 94.7639 58.5459 94.7016 58.568C94.6053 58.6023 94.5091 58.6359 94.4096 58.662C94.3433 58.68 94.277 58.6988 94.2075 58.7144C94.1112 58.7365 94.015 58.7586 93.9196 58.7774C93.8864 58.7815 93.8565 58.7921 93.8233 58.7962C93.7643 58.8076 93.7052 58.8109 93.6503 58.8183C93.5912 58.8256 93.5354 58.8338 93.4764 58.8403C93.3179 58.8518 93.1594 58.8632 93.0041 58.8632C92.8456 58.8632 92.6871 58.8518 92.5326 58.8403C92.4768 58.833 92.4218 58.8256 92.366 58.8183C92.2665 58.8076 92.1711 58.7921 92.0708 58.7741C92.0086 58.7626 91.9422 58.7512 91.8792 58.7365C91.791 58.7144 91.698 58.6915 91.6099 58.6653C91.5508 58.6465 91.4877 58.6318 91.4287 58.613C91.2928 58.5721 91.1594 58.5197 91.0308 58.4682C90.9677 58.442 90.9128 58.4117 90.8537 58.3856C90.772 58.3488 90.6912 58.3111 90.6135 58.2662C90.5545 58.2367 90.4955 58.2032 90.4364 58.1696C90.3588 58.1246 90.2852 58.0764 90.2076 58.0281C90.1558 57.9946 90.1048 57.9611 90.049 57.9234C90.0272 57.9046 90.0013 57.8899 89.9754 57.8711L87.9351 56.3783V56.3857L96.8536 65.406C97.7254 62.0941 98.2405 58.6359 98.3497 55.0762L97.1876 56.699C97.1585 56.7407 97.1253 56.7775 97.0962 56.8184V56.8184Z" fill="url(#paint17_linear)"/>
<path d="M53.1327 18.3015L47.1684 11.9763C47.1676 11.9747 47.166 11.973 47.1644 11.9714C47.1264 11.9313 47.0795 11.9019 47.0269 11.8855C46.9808 11.8708 46.9307 11.8651 46.8797 11.8733C46.2918 11.9706 44.8927 12.252 43.2364 12.9333C39.6126 14.4252 37.3635 18.0463 37.5083 21.9176C42.0614 19.6494 47.1692 18.3538 52.5658 18.3039C52.7025 18.3039 52.8424 18.2998 52.9791 18.2998C53.03 18.2998 53.0818 18.3015 53.1327 18.3015Z" fill="url(#paint18_linear)"/>
<path d="M37.522 21.911L32.8702 17.2013C31.8658 16.0971 30.6948 15.1884 29.4324 14.498C24.9108 17.2815 20.9061 20.8428 17.6033 24.9979C18.3869 26.3852 19.3469 27.5794 20.4128 28.5904C20.5567 28.7409 20.7039 28.8889 20.8527 29.0329L24.6464 32.8698C27.9832 28.2419 32.4004 24.4597 37.522 21.911Z" fill="url(#paint19_linear)"/>
<path d="M36.279 34.5311H33.7865C33.3086 33.6461 32.3737 33.0653 31.3321 33.0931C24.5316 33.278 11.0761 26.3868 16.9725 8.11971C17.0178 7.97248 17.1488 7.89478 17.2798 7.89478C17.2968 7.89478 17.3113 7.89641 17.3275 7.89887C17.3445 7.90132 17.3591 7.90541 17.3752 7.9095C17.4464 7.93076 17.5103 7.97412 17.554 8.04773C18.3174 9.27383 20.564 11.9199 26.2671 13.276C31.7437 14.5774 36.7214 19.7427 36.2523 27.2048C36.2232 27.6571 35.6158 27.779 35.425 27.3692C33.2609 22.7339 29.5885 19.9905 26.8696 18.4978C26.5477 18.3211 26.2566 18.7791 26.5501 19.0024C29.8521 21.5062 34.7635 26.4604 36.279 34.5311Z" fill="url(#paint20_linear)"/>
<path d="M38.4093 28.7491C40.9777 27.6587 49.724 23.0799 47.2453 12.1219C47.2073 11.9542 47.0472 11.8454 46.8798 11.8733C46.2918 11.9706 44.8927 12.252 43.2365 12.9341C39.2422 14.5782 36.9172 18.8094 37.6288 23.1118C37.8771 24.6103 38.0065 26.3901 37.8092 28.3025C37.7752 28.6329 38.1068 28.8775 38.4093 28.7491Z" fill="url(#paint21_linear)"/>
<path d="M36.279 34.5311H33.7865C33.3086 33.6461 32.3737 33.0653 31.3321 33.0931C24.5316 33.278 11.0761 26.3868 16.9725 8.11971C17.0178 7.97248 17.1488 7.89478 17.2798 7.89478C17.2968 7.89478 17.3113 7.89641 17.3275 7.89887C17.3445 7.90132 17.3591 7.90541 17.3752 7.9095C17.7707 9.5323 19.4747 14.1488 26.5501 19.0024C29.8521 21.5062 34.7635 26.4604 36.279 34.5311Z" fill="url(#paint22_linear)"/>
<path d="M38.4091 28.7491C38.2757 28.8063 38.1374 28.79 38.0266 28.7262C39.4718 26.1676 40.5741 22.4329 41.5154 18.9395C42.5773 15.0027 46.0725 12.5055 47.0268 11.8855C47.1328 11.9191 47.2185 12.0058 47.2452 12.1219C49.7239 23.0799 40.9776 27.6587 38.4091 28.7491Z" fill="url(#paint23_linear)"/>
<defs>
<linearGradient id="paint0_linear" x1="53.0036" y1="57.5826" x2="53.0036" y2="104.665" gradientUnits="userSpaceOnUse">
<stop stop-color="#FFF9B4"/>
<stop offset="1" stop-color="#FFF465"/>
</linearGradient>
<linearGradient id="paint1_linear" x1="41.8262" y1="88.8002" x2="13.9077" y2="61.1967" gradientUnits="userSpaceOnUse">
<stop stop-color="#FFB92D" stop-opacity="0"/>
<stop offset="1" stop-color="#F59500"/>
</linearGradient>
<linearGradient id="paint2_linear" x1="47.2974" y1="46.5362" x2="30.5585" y2="29.9861" gradientUnits="userSpaceOnUse">
<stop stop-color="#FFB92D" stop-opacity="0"/>
<stop offset="1" stop-color="#F59500"/>
</linearGradient>
<linearGradient id="paint3_linear" x1="57.7619" y1="56.8146" x2="31.1385" y2="30.4916" gradientUnits="userSpaceOnUse">
<stop stop-color="#FFB92D" stop-opacity="0"/>
<stop offset="1" stop-color="#F59500"/>
</linearGradient>
<linearGradient id="paint4_linear" x1="47.7543" y1="79.7383" x2="24.1826" y2="56.4325" gradientUnits="userSpaceOnUse">
<stop stop-color="#FFB92D" stop-opacity="0"/>
<stop offset="1" stop-color="#F59500"/>
</linearGradient>
<linearGradient id="paint5_linear" x1="37.7433" y1="74.4832" x2="29.8608" y2="66.6895" gradientUnits="userSpaceOnUse">
<stop stop-color="#605B55" stop-opacity="0"/>
<stop offset="1" stop-color="#4C4843"/>
</linearGradient>
<linearGradient id="paint6_linear" x1="38.4007" y1="76.0778" x2="15.541" y2="53.4757" gradientUnits="userSpaceOnUse">
<stop stop-color="#C3C3C3" stop-opacity="0"/>
<stop offset="0.0516" stop-color="#BDBCBC" stop-opacity="0.05098"/>
<stop offset="0.3065" stop-color="#A39F9D" stop-opacity="0.305882"/>
<stop offset="0.5545" stop-color="#918B86" stop-opacity="0.552941"/>
<stop offset="0.7901" stop-color="#867E79" stop-opacity="0.788235"/>
<stop offset="1" stop-color="#827A74"/>
</linearGradient>
<linearGradient id="paint7_linear" x1="75.5989" y1="75.0736" x2="60.5071" y2="60.1523" gradientUnits="userSpaceOnUse">
<stop stop-color="#FFB92D" stop-opacity="0"/>
<stop offset="1" stop-color="#F59500"/>
</linearGradient>
<linearGradient id="paint8_linear" x1="53.0001" y1="43.272" x2="53.0001" y2="69.7306" gradientUnits="userSpaceOnUse">
<stop stop-color="#FFB92D"/>
<stop offset="1" stop-color="#F59500"/>
</linearGradient>
<linearGradient id="paint9_linear" x1="67.8521" y1="40.2353" x2="44.1539" y2="16.8044" gradientUnits="userSpaceOnUse">
<stop stop-color="#BE3F45" stop-opacity="0"/>
<stop offset="1" stop-color="#BE3F45"/>
</linearGradient>
<linearGradient id="paint10_linear" x1="47.6203" y1="74.9635" x2="58.3872" y2="74.9635" gradientUnits="userSpaceOnUse">
<stop stop-color="#827A74"/>
<stop offset="1" stop-color="#605B55"/>
</linearGradient>
<linearGradient id="paint11_linear" x1="52.6413" y1="43.5798" x2="54.2342" y2="43.5798" gradientUnits="userSpaceOnUse">
<stop stop-color="#FFB92D"/>
<stop offset="1" stop-color="#F59500"/>
</linearGradient>
<linearGradient id="paint12_linear" x1="53.0005" y1="49.5213" x2="53.0005" y2="52.4923" gradientUnits="userSpaceOnUse">
<stop stop-color="#FFB92D"/>
<stop offset="1" stop-color="#F59500"/>
</linearGradient>
<linearGradient id="paint13_linear" x1="53" y1="53.8794" x2="53" y2="36.6553" gradientUnits="userSpaceOnUse">
<stop stop-color="#FFB92D"/>
<stop offset="1" stop-color="#F59500"/>
</linearGradient>
<linearGradient id="paint14_linear" x1="64.4399" y1="48.9108" x2="49.5655" y2="34.2042" gradientUnits="userSpaceOnUse">
<stop stop-color="#BE3F45" stop-opacity="0"/>
<stop offset="1" stop-color="#BE3F45"/>
</linearGradient>
<linearGradient id="paint15_linear" x1="-7.90255e-05" y1="73.9212" x2="98.35" y2="73.9212" gradientUnits="userSpaceOnUse">
<stop stop-color="#ACFCD9"/>
<stop offset="1" stop-color="#53D6BE"/>
</linearGradient>
<linearGradient id="paint16_linear" x1="106.001" y1="33.3572" x2="7.65057" y2="33.3572" gradientUnits="userSpaceOnUse">
<stop stop-color="#ACFCD9"/>
<stop offset="1" stop-color="#53D6BE"/>
</linearGradient>
<linearGradient id="paint17_linear" x1="98.5721" y1="61.2222" x2="92.7294" y2="55.4454" gradientUnits="userSpaceOnUse">
<stop stop-color="#53D6BE" stop-opacity="0"/>
<stop offset="0.2513" stop-color="#51B4A7" stop-opacity="0.25098"/>
<stop offset="0.5767" stop-color="#508D8E" stop-opacity="0.576471"/>
<stop offset="0.8378" stop-color="#4E767F" stop-opacity="0.839216"/>
<stop offset="1" stop-color="#4E6D79"/>
</linearGradient>
<linearGradient id="paint18_linear" x1="46.8395" y1="21.4985" x2="39.2254" y2="13.9702" gradientUnits="userSpaceOnUse">
<stop stop-color="#53D6BE" stop-opacity="0"/>
<stop offset="0.2513" stop-color="#51B4A7" stop-opacity="0.25098"/>
<stop offset="0.5767" stop-color="#508D8E" stop-opacity="0.576471"/>
<stop offset="0.8378" stop-color="#4E767F" stop-opacity="0.839216"/>
<stop offset="1" stop-color="#4E6D79"/>
</linearGradient>
<linearGradient id="paint19_linear" x1="34.5802" y1="30.9226" x2="19.4349" y2="15.948" gradientUnits="userSpaceOnUse">
<stop stop-color="#53D6BE" stop-opacity="0"/>
<stop offset="0.2513" stop-color="#51B4A7" stop-opacity="0.25098"/>
<stop offset="0.5767" stop-color="#508D8E" stop-opacity="0.576471"/>
<stop offset="0.8378" stop-color="#4E767F" stop-opacity="0.839216"/>
<stop offset="1" stop-color="#4E6D79"/>
</linearGradient>
<linearGradient id="paint20_linear" x1="10.4443" y1="6.50956" x2="45.9837" y2="41.6482" gradientUnits="userSpaceOnUse">
<stop stop-color="#CFFFB4"/>
<stop offset="1" stop-color="#8EE388"/>
</linearGradient>
<linearGradient id="paint21_linear" x1="42.9451" y1="15.9047" x2="41.0699" y2="31.2423" gradientUnits="userSpaceOnUse">
<stop stop-color="#CFFFB4"/>
<stop offset="1" stop-color="#8EE388"/>
</linearGradient>
<linearGradient id="paint22_linear" x1="24.578" y1="22.424" x2="18.3286" y2="2.60054" gradientUnits="userSpaceOnUse">
<stop stop-color="#8EE388" stop-opacity="0"/>
<stop offset="1" stop-color="#4B9345"/>
</linearGradient>
<linearGradient id="paint23_linear" x1="43.6654" y1="22.5212" x2="33.2509" y2="1.66838" gradientUnits="userSpaceOnUse">
<stop stop-color="#8EE388" stop-opacity="0"/>
<stop offset="1" stop-color="#4B9345"/>
</linearGradient>
</defs>
</svg>
